<?xml version="1.0" encoding="utf-8"?>
<!-- Generator: Adobe Illustrator 16.2.1, SVG Export Plug-In . SVG Version: 6.00 Build 0)  -->
<!DOCTYPE svg PUBLIC "-//W3C//DTD SVG 1.1//EN" "http://www.w3.org/Graphics/SVG/1.1/DTD/svg11.dtd">
<svg version="1.1" id="Layer_1" xmlns="http://www.w3.org/2000/svg" xmlns:xlink="http://www.w3.org/1999/xlink" x="0px" y="0px"
	 width="91px" height="11px" viewBox="0 0 91 11" enable-background="new 0 0 91 11" xml:space="preserve">
<g>
	<rect x="28.009" y="3.996" fill="#FFFFFF" width="1" height="1.001"/>
	<rect x="28.009" y="-0.014" fill="#FFFFFF" width="1" height="1.002"/>
	<rect x="30.009" y="10.011" fill="#FFFFFF" width="1.001" height="1.003"/>
	<rect x="28.009" y="1.991" fill="#FFFFFF" width="1" height="1.001"/>
	<rect x="34.011" y="6.001" fill="#FFFFFF" width="1.002" height="1.002"/>
	<rect x="30.009" y="6.001" fill="#FFFFFF" width="1.001" height="1.002"/>
	<rect x="30.009" y="1.991" fill="#FFFFFF" width="1.001" height="1.001"/>
	<rect x="30.009" y="3.996" fill="#FFFFFF" width="1.001" height="1.001"/>
	<rect x="26.008" y="8.006" fill="#FFFFFF" width="1.002" height="1.002"/>
	<rect x="24.007" y="-0.014" fill="#FFFFFF" width="1.002" height="1.002"/>
	<rect x="24.007" y="1.991" fill="#FFFFFF" width="1.002" height="1.001"/>
	<rect x="24.007" y="3.996" fill="#FFFFFF" width="1.002" height="1.001"/>
	<rect x="28.009" y="6.001" fill="#FFFFFF" width="1" height="1.002"/>
	<rect x="34.011" y="3.996" fill="#FFFFFF" width="1.002" height="1.001"/>
	<rect x="28.009" y="8.006" fill="#FFFFFF" width="1" height="1.002"/>
	<rect x="26.008" y="-0.014" fill="#FFFFFF" width="1.002" height="1.002"/>
	<rect x="28.009" y="10.011" fill="#FFFFFF" width="1" height="1.003"/>
	<rect x="34.011" y="-0.014" fill="#FFFFFF" width="1.002" height="1.002"/>
	<rect x="40.014" y="-0.014" fill="#FFFFFF" width="0.999" height="1.002"/>
	<rect x="40.014" y="1.991" fill="#FFFFFF" width="0.998" height="1.001"/>
	<rect x="40.014" y="3.996" fill="#FFFFFF" width="0.998" height="1.001"/>
	<rect x="42.013" y="8.006" fill="#FFFFFF" width="1.002" height="1.002"/>
	<rect x="42.013" y="3.996" fill="#FFFFFF" width="1.002" height="1.001"/>
	<rect x="42.014" y="1.991" fill="#FFFFFF" width="1.001" height="1.001"/>
	<rect x="40.014" y="6.001" fill="#FFFFFF" width="0.998" height="1.002"/>
	<rect x="42.013" y="6.001" fill="#FFFFFF" width="1.002" height="1.002"/>
	<rect x="36.008" y="3.996" fill="#FFFFFF" width="1.003" height="1.001"/>
	<rect x="36.008" y="6.001" fill="#FFFFFF" width="1.003" height="1.002"/>
	<rect x="36.008" y="8.006" fill="#FFFFFF" width="1.003" height="1.002"/>
	<rect x="24.007" y="6.001" fill="#FFFFFF" width="1.002" height="1.002"/>
	<rect x="40.014" y="8.006" fill="#FFFFFF" width="0.998" height="1.002"/>
	<rect x="34.011" y="1.991" fill="#FFFFFF" width="1.002" height="1.001"/>
	<rect x="38.011" y="8.006" fill="#FFFFFF" width="1.002" height="1.002"/>
	<rect x="36.008" y="-0.014" fill="#FFFFFF" width="1.003" height="1.002"/>
	<rect x="36.008" y="1.991" fill="#FFFFFF" width="1.003" height="1.001"/>
	<rect x="14.003" y="-0.014" fill="#FFFFFF" width="1.002" height="1.002"/>
	<rect x="4.001" y="8.006" fill="#FFFFFF" width="1.002" height="1.002"/>
	<rect x="4.001" y="-0.014" fill="#FFFFFF" width="1.002" height="1.002"/>
	<rect x="6.003" y="6.001" fill="#FFFFFF" width="1" height="1.002"/>
	<rect x="4.001" y="6.001" fill="#FFFFFF" width="1.002" height="1.002"/>
	<rect x="4.001" y="3.996" fill="#FFFFFF" width="1.002" height="1.001"/>
	<rect x="10.003" y="6.001" fill="#FFFFFF" width="1.003" height="1.002"/>
	<rect x="10.003" y="3.996" fill="#FFFFFF" width="1.003" height="1.001"/>
	<rect x="6.003" y="3.996" fill="#FFFFFF" width="1" height="1.001"/>
	<rect x="6.003" y="-0.014" fill="#FFFFFF" width="1" height="1.002"/>
	<rect y="3.998" fill="#FFFFFF" width="1.001" height="1"/>
	<rect y="8.007" fill="#FFFFFF" width="1.001" height="1.001"/>
	<rect x="2" y="-0.014" fill="#FFFFFF" width="1.001" height="1.002"/>
	<rect y="1.991" fill="#FFFFFF" width="1.001" height="1.001"/>
	<rect x="18.006" y="1.991" fill="#FFFFFF" width="1.002" height="1.001"/>
	<rect x="10.003" y="1.991" fill="#FFFFFF" width="1.003" height="1.001"/>
	<rect x="24.007" y="8.006" fill="#FFFFFF" width="1.002" height="1.002"/>
	<rect x="2" y="1.991" fill="#FFFFFF" width="1.001" height="1.001"/>
	<rect x="2" y="3.998" fill="#FFFFFF" width="1.001" height="1"/>
	<rect x="2" y="8.007" fill="#FFFFFF" width="1.001" height="1.001"/>
	<rect x="16.006" y="-0.014" fill="#FFFFFF" width="1.001" height="1.002"/>
	<rect x="18.006" y="3.996" fill="#FFFFFF" width="1.002" height="1.001"/>
	<rect x="16.006" y="3.996" fill="#FFFFFF" width="1.001" height="1.001"/>
	<rect x="18.009" y="8.006" fill="#FFFFFF" width="1.003" height="1.002"/>
	<rect x="16.006" y="1.991" fill="#FFFFFF" width="1.001" height="1.001"/>
	<rect x="22.006" y="1.991" fill="#FFFFFF" width="1.001" height="1.001"/>
	<rect x="22.006" y="6.001" fill="#FFFFFF" width="1.001" height="1.002"/>
	<rect x="22.006" y="3.996" fill="#FFFFFF" width="1.001" height="1.001"/>
	<rect x="16.006" y="8.006" fill="#FFFFFF" width="1.001" height="1.002"/>
	<rect x="12.004" y="8.006" fill="#FFFFFF" width="1.002" height="1.002"/>
	<rect x="12.004" y="1.991" fill="#FFFFFF" width="1.002" height="1.001"/>
	<rect x="12.004" y="6.001" fill="#FFFFFF" width="1.002" height="1.002"/>
	<rect x="12.004" y="-0.014" fill="#FFFFFF" width="1.002" height="1.002"/>
	<rect x="12.004" y="3.996" fill="#FFFFFF" width="1.002" height="1.001"/>
	<rect x="14.003" y="8.006" fill="#FFFFFF" width="1.002" height="1.002"/>
	<rect x="42.014" y="-0.014" fill="#FFFFFF" width="1.001" height="1.002"/>
	<rect x="14.003" y="3.996" fill="#FFFFFF" width="1.002" height="1.001"/>
	<rect x="60.018" y="6.001" fill="#FFFFFF" width="1.001" height="1.002"/>
	<rect x="76.021" y="8.007" fill="#FFFFFF" width="1.001" height="1.001"/>
	<rect x="81.996" y="6.001" fill="#FFFFFF" width="1.002" height="1.002"/>
	<rect x="74.02" y="-0.014" fill="#FFFFFF" width="1.002" height="1.002"/>
	<rect x="78.021" y="8.007" fill="#FFFFFF" width="1.003" height="1.001"/>
	<rect x="78.021" y="1.99" fill="#FFFFFF" width="1.003" height="1.002"/>
	<rect x="78.021" y="-0.014" fill="#FFFFFF" width="1.003" height="1.002"/>
	<rect x="66.019" y="1.99" fill="#FFFFFF" width="1" height="1.002"/>
	<rect x="78.021" y="6.001" fill="#FFFFFF" width="1.003" height="1.002"/>
	<rect x="76.021" y="-0.014" fill="#FFFFFF" width="1.001" height="1.002"/>
	<rect x="70.018" y="3.996" fill="#FFFFFF" width="1.001" height="1.001"/>
	<rect x="70.018" y="1.99" fill="#FFFFFF" width="1.001" height="1.002"/>
	<rect x="70.018" y="6.001" fill="#FFFFFF" width="1.001" height="1.002"/>
	<rect x="72.018" y="-0.014" fill="#FFFFFF" width="1.002" height="1.002"/>
	<rect x="72.018" y="8.006" fill="#FFFFFF" width="1.002" height="1.002"/>
	<rect x="72.018" y="1.99" fill="#FFFFFF" width="1.002" height="1.002"/>
	<rect x="72.018" y="6.001" fill="#FFFFFF" width="1.002" height="1.002"/>
	<rect x="72.018" y="3.996" fill="#FFFFFF" width="1.002" height="1.001"/>
	<rect x="74.02" y="8.007" fill="#FFFFFF" width="1.002" height="1.001"/>
	<rect x="87.999" y="1.99" fill="#FFFFFF" width="1" height="1.002"/>
	<rect x="87.999" y="3.996" fill="#FFFFFF" width="1" height="1.001"/>
	<rect x="85.998" y="-0.014" fill="#FFFFFF" width="1.002" height="1.002"/>
	<rect x="87.999" y="8.007" fill="#FFFFFF" width="1" height="1.001"/>
	<rect x="46.015" y="6.001" fill="#FFFFFF" width="1" height="1.002"/>
	<rect x="81.996" y="3.996" fill="#FFFFFF" width="1.002" height="1.001"/>
	<rect x="89.998" y="8.007" fill="#FFFFFF" width="1.002" height="1.001"/>
	<rect x="89.998" y="3.996" fill="#FFFFFF" width="1.002" height="1.001"/>
	<rect x="89.998" y="1.99" fill="#FFFFFF" width="1.002" height="1.002"/>
	<rect x="83.998" y="6.001" fill="#FFFFFF" width="1.001" height="1.002"/>
	<rect x="83.998" y="3.996" fill="#FFFFFF" width="1.001" height="1.001"/>
	<rect x="83.998" y="8.007" fill="#FFFFFF" width="1.001" height="1.001"/>
	<rect x="81.996" y="1.99" fill="#FFFFFF" width="1.002" height="1.002"/>
	<rect x="85.998" y="8.007" fill="#FFFFFF" width="1.002" height="1.001"/>
	<rect x="85.998" y="3.996" fill="#FFFFFF" width="1.002" height="1.001"/>
	<rect x="83.998" y="1.99" fill="#FFFFFF" width="1.001" height="1.002"/>
	<rect x="83.998" y="-0.014" fill="#FFFFFF" width="1.001" height="1.002"/>
	<rect x="87.999" y="-0.014" fill="#FFFFFF" width="1" height="1.002"/>
	<rect x="50.015" y="3.996" fill="#FFFFFF" width="1.003" height="1.001"/>
	<rect x="52.014" y="8.006" fill="#FFFFFF" width="1.003" height="1.002"/>
	<rect x="52.014" y="1.99" fill="#FFFFFF" width="1.003" height="1.002"/>
	<rect x="50.015" y="-0.014" fill="#FFFFFF" width="1.003" height="1.002"/>
	<rect x="52.014" y="3.996" fill="#FFFFFF" width="1.003" height="1.001"/>
	<rect x="54.016" y="3.996" fill="#FFFFFF" width="1.002" height="1.001"/>
	<rect x="54.016" y="8.006" fill="#FFFFFF" width="1.002" height="1.002"/>
	<rect x="52.014" y="-0.014" fill="#FFFFFF" width="1.003" height="1.002"/>
	<rect x="54.016" y="1.99" fill="#FFFFFF" width="1.002" height="1.002"/>
	<rect x="48.016" y="8.006" fill="#FFFFFF" width="1.001" height="1.002"/>
	<rect x="48.016" y="6.001" fill="#FFFFFF" width="1.001" height="1.002"/>
	<rect x="46.015" y="1.991" fill="#FFFFFF" width="1" height="1.001"/>
	<rect x="46.015" y="3.996" fill="#FFFFFF" width="1" height="1.001"/>
	<rect x="48.016" y="-0.014" fill="#FFFFFF" width="1.002" height="1.002"/>
	<rect x="48.016" y="3.996" fill="#FFFFFF" width="1.001" height="1.001"/>
	<rect x="50.015" y="8.006" fill="#FFFFFF" width="1.003" height="1.002"/>
	<rect x="48.016" y="1.991" fill="#FFFFFF" width="1.002" height="1.001"/>
	<rect x="64.019" y="6.001" fill="#FFFFFF" width="1" height="1.002"/>
	<rect x="64.019" y="3.996" fill="#FFFFFF" width="1" height="1.001"/>
	<rect x="66.019" y="3.996" fill="#FFFFFF" width="1" height="1.001"/>
	<rect x="62.017" y="-0.014" fill="#FFFFFF" width="1.001" height="1.002"/>
	<rect x="64.019" y="8.006" fill="#FFFFFF" width="1" height="1.002"/>
	<rect x="64.019" y="1.99" fill="#FFFFFF" width="1" height="1.002"/>
	<rect x="64.019" y="-0.014" fill="#FFFFFF" width="1" height="1.002"/>
	<rect x="66.019" y="6.001" fill="#FFFFFF" width="1" height="1.002"/>
	<rect x="66.019" y="8.006" fill="#FFFFFF" width="1" height="1.002"/>
	<rect x="58.016" y="3.996" fill="#FFFFFF" width="1.003" height="1.001"/>
	<rect x="58.016" y="-0.014" fill="#FFFFFF" width="1.003" height="1.002"/>
	<rect x="58.016" y="1.99" fill="#FFFFFF" width="1.003" height="1.002"/>
	<rect x="60.018" y="-0.014" fill="#FFFFFF" width="1.001" height="1.002"/>
	<rect x="58.016" y="6.001" fill="#FFFFFF" width="1.003" height="1.002"/>
	<rect x="58.016" y="8.006" fill="#FFFFFF" width="1.003" height="1.002"/>
	<rect x="60.018" y="8.006" fill="#FFFFFF" width="1.001" height="1.002"/>
	<rect x="60.018" y="1.99" fill="#FFFFFF" width="1.001" height="1.002"/>
	<rect x="60.018" y="3.996" fill="#FFFFFF" width="1.001" height="1.001"/>
</g>
</svg>
