<?xml version="1.0" standalone="no"?>
<!DOCTYPE svg PUBLIC "-//W3C//DTD SVG 1.1//EN" "http://www.w3.org/Graphics/SVG/1.1/DTD/svg11.dtd" >
<svg>
<metadata>
Created by FontForge 20110222 at Sat Oct  5 08:08:14 2013
 By Orthosie Webhosting
Part of the digitally encoded machine readable outline data for producing the Typefaces provided is copyrighted (c) 2002 - 2007 Linotype GmbH, www.linotype.com. All rights reserved. This software is the property of Linotype GmbH, and may not be reproduced, used, displayed, modified, disclosed or transferred without the express written approval of Linotype GmbH.  The digitally encoded machine readable software for producing the Typefaces licensed to you is copyrighted (c) 1989, 1992 Adobe Systems. All Rights Reserved. This software is the property of Adobe Systems Incorporated and its licensors, and may not be reproduced, used, displayed, modified, disclosed or transferred without the express written approval of Adobe. Trade Gothic is a trademark of Linotype GmbH and may be registered in certain jurisdictions. This typeface is original artwork of Jackson Burke. The design may be protected in certain jurisdictions.
</metadata>
<defs>
<font id="TradeGothicLTComBold" horiz-adv-x="500" >
  <font-face 
    font-family="TradeGothicLTComBold"
    font-weight="700"
    font-stretch="normal"
    units-per-em="1000"
    panose-1="2 11 8 3 4 3 3 2 0 4"
    ascent="800"
    descent="-200"
    x-height="544"
    cap-height="722"
    bbox="-167 -228 1000 971"
    underline-thickness="50"
    underline-position="-75"
    unicode-range="U+000D-FB02"
  />
<missing-glyph horiz-adv-x="512" 
d="M222 117v67h56v-67h-56zM225 234l-2 17q0 55 13 81t46 59q32 31 41 47.5t9 35.5q0 36 -22.5 60.5t-53.5 24.5t-53.5 -22t-28.5 -73l-50 8q7 71 44 104t91 33q53 0 88.5 -36t35.5 -95q0 -32 -12.5 -58.5t-50.5 -61.5q-37 -33 -43 -52t-6 -72h-46zM462 50v617h-412v-617
h412zM512 718v-718h-512v718h512z" />
    <glyph glyph-name="IJ" unicode="IJ" horiz-adv-x="599" 
d="M70 0v722h138v-722h-138zM529 722v-569q0 -73 -47 -118t-138 -45q-23 0 -38 0.5t-30 2.5v122q11 -1 19.5 -2t17.5 -1q47 0 62.5 15t15.5 54v541h138z" />
    <glyph glyph-name="ij" unicode="ij" horiz-adv-x="538" 
d="M76 638v114h126v-114h-126zM202 544v-544h-126v544h126zM336 638v114h126v-114h-126zM462 544v-588q0 -39 -12.5 -67t-33.5 -46t-49 -26.5t-59 -8.5q-25 0 -46 3v111q41 0 57.5 12t16.5 38v572h126z" />
    <glyph glyph-name="napostrophe" unicode="&#x22;n" horiz-adv-x="616" 
d="M176 0v544h122v-62q35 30 68.5 51t72.5 21q58 0 87.5 -32t29.5 -108v-414h-126v400q0 27 -10 43.5t-36 16.5q-20 0 -41 -15.5t-41 -33.5v-411h-126zM51 580h-60v142h142v-142l-63 -148h-70z" />
    <glyph glyph-name="fi" unicode="fi" 
d="M322 614v114h126v-114h-126zM448 520v-520h-126v520h126zM270 622h-36q-23 0 -33 -13t-10 -33v-56h75v-102h-75v-418h-126v418h-57v102h57v52q0 47 9.5 78t28.5 49t45.5 25.5t61.5 7.5q14 0 29 -2t31 -4v-104z" />
    <glyph glyph-name="fl" unicode="fl" 
d="M322 722h126v-722h-126v722zM270 622h-36q-23 0 -33 -13t-10 -33v-56h75v-102h-75v-418h-126v418h-57v102h57v52q0 47 9.5 78t28.5 49t45.5 25.5t61.5 7.5q14 0 29 -2t31 -4v-104z" />
    <glyph glyph-name=".notdef" horiz-adv-x="512" 
d="M222 117v67h56v-67h-56zM225 234l-2 17q0 55 13 81t46 59q32 31 41 47.5t9 35.5q0 36 -22.5 60.5t-53.5 24.5t-53.5 -22t-28.5 -73l-50 8q7 71 44 104t91 33q53 0 88.5 -36t35.5 -95q0 -32 -12.5 -58.5t-50.5 -61.5q-37 -33 -43 -52t-6 -72h-46zM462 50v617h-412v-617
h412zM512 718v-718h-512v718h512z" />
    <glyph glyph-name=".null" horiz-adv-x="0" 
 />
    <glyph glyph-name="nonmarkingreturn" unicode="&#xd;" horiz-adv-x="278" 
 />
    <glyph glyph-name="space" unicode=" " horiz-adv-x="278" 
 />
    <glyph glyph-name="exclam" unicode="!" horiz-adv-x="278" 
d="M68 0v142h142v-142h-142zM184 244h-90l-28 478h146z" />
    <glyph glyph-name="quotedbl" unicode="&#x22;" horiz-adv-x="333" 
d="M24 722h110v-270h-110v270zM199 722h110v-270h-110v270z" />
    <glyph glyph-name="numbersign" unicode="#" horiz-adv-x="556" 
d="M242 422l-18 -122h99l18 122h-99zM506 206h-99l-29 -206h-96l28 206h-99l-29 -206h-96l28 206h-94v94h107l18 122h-94v94h106l29 206h96l-28 -206h99l29 206h96l-28 -206h86v-94h-98l-18 -122h86v-94z" />
    <glyph glyph-name="dollar" unicode="$" horiz-adv-x="556" 
d="M232 618q-35 -1 -60.5 -21t-25.5 -58q0 -33 26.5 -56t59.5 -33v168zM310 110q39 0 64.5 24t25.5 62q0 22 -7.5 37.5t-20 26.5t-28.5 19t-34 16v-185zM105 205q23 -32 56 -58.5t71 -34.5v206q-39 11 -75 29.5t-64 45t-44.5 60.5t-16.5 76q0 44 16 79t43 60t63.5 38.5
t77.5 15.5v64h78v-64q63 -11 109 -39.5t81 -66.5l-78 -75q-22 26 -49.5 46.5t-62.5 24.5v-184q42 -15 80.5 -33.5t67.5 -45t46.5 -62.5t17.5 -87q0 -45 -16.5 -81.5t-45.5 -62.5t-67.5 -40.5t-82.5 -15.5v-114h-78v115q-26 0 -55.5 10.5t-58.5 28t-55 40t-44 47.5z" />
    <glyph glyph-name="percent" unicode="%" horiz-adv-x="889" 
d="M675 262q-17 0 -32 -7t-26 -18t-17.5 -26t-6.5 -31t6.5 -31t17.5 -26t26 -18t32 -7t32 7t26 18t17.5 26t6.5 31t-6.5 31t-17.5 26t-26 18t-32 7zM214 624q-17 0 -32 -7t-26 -18t-17.5 -26t-6.5 -31t6.5 -31t17.5 -26t26 -18t32 -7t32 7t26 18t17.5 26t6.5 31t-6.5 31
t-17.5 26t-26 18t-32 7zM612 732h85l-415 -742h-85zM675 360q38 0 71 -14.5t57 -39t38 -57t14 -69.5t-14 -69.5t-38 -57t-57 -39t-71 -14.5t-71 14.5t-57 39t-38 57t-14 69.5t14 69.5t38 57t57 39t71 14.5zM214 722q38 0 71 -14.5t57 -39t38 -57t14 -69.5t-14 -69.5t-38 -57
t-57 -39t-71 -14.5t-71 14.5t-57 39t-38 57t-14 69.5t14 69.5t38 57t57 39t71 14.5z" />
    <glyph glyph-name="ampersand" unicode="&#x26;" horiz-adv-x="667" 
d="M274 648q-30 0 -46.5 -22.5t-16.5 -55.5q0 -32 11.5 -58t29.5 -56q14 13 29.5 26t28 27.5t20.5 32t8 39.5q0 12 -4 23.5t-12 21.5t-20 16t-28 6zM172 208q0 -26 8.5 -45.5t23 -32.5t33 -19.5t38.5 -6.5q28 0 53 11.5t40 28.5q-42 36 -77 74.5t-67 79.5q-23 -18 -37.5 -38
t-14.5 -52zM618 332q-17 -45 -37.5 -90t-48.5 -90q22 -15 47 -26t53 -14v-122q-26 0 -48 3.5t-43.5 12t-43.5 22.5t-47 36q-35 -35 -81 -54.5t-100 -19.5q-52 0 -95.5 12.5t-74.5 38t-48 62.5t-17 87q0 37 9 66.5t25 53.5t38.5 43t49.5 37q-29 43 -44 80t-15 82q0 46 15 80
t40.5 56.5t59 33t70.5 10.5t68 -12.5t53.5 -34.5t35.5 -52t13 -64q0 -35 -12.5 -63t-32 -52t-44.5 -44.5t-50 -40.5q58 -80 129 -147q20 35 37 69t28 72z" />
    <glyph glyph-name="quotesingle" unicode="'" horiz-adv-x="222" 
d="M56 722h110v-270h-110v270z" />
    <glyph glyph-name="parenleft" unicode="(" horiz-adv-x="333" 
d="M186 -84q-61 86 -98.5 189.5t-37.5 218.5t37.5 218.5t98.5 189.5h118q-29 -41 -55 -85t-46 -94t-31.5 -106.5t-11.5 -122.5t11.5 -122.5t31.5 -106.5t46 -94.5t55 -84.5h-118z" />
    <glyph glyph-name="parenright" unicode=")" horiz-adv-x="333" 
d="M29 -84q29 40 55 84.5t46 94.5t31.5 106.5t11.5 122.5t-11.5 122.5t-31.5 106.5t-46 94t-55 85h118q61 -86 98.5 -189.5t37.5 -218.5t-37.5 -218.5t-98.5 -189.5h-118z" />
    <glyph glyph-name="asterisk" unicode="*" 
d="M300 722l-29 -145l4 -5l133 68l26 -89l-146 -18l-2 -6l106 -104l-75 -57l-64 134h-6l-64 -134l-75 57l106 104l-2 6l-146 18l26 89l133 -68l4 5l-29 145h100z" />
    <glyph glyph-name="plus" unicode="+" horiz-adv-x="600" 
d="M239 544h122v-211h211v-122h-211v-211h-122v211h-211v122h211v211z" />
    <glyph glyph-name="comma" unicode="," horiz-adv-x="278" 
d="M128 0h-60v142h142v-142l-63 -148h-70z" />
    <glyph glyph-name="hyphen" unicode="-" horiz-adv-x="333" 
d="M43 217v110h246v-110h-246z" />
    <glyph glyph-name="period" unicode="." horiz-adv-x="278" 
d="M68 0v142h142v-142h-142z" />
    <glyph glyph-name="slash" unicode="/" horiz-adv-x="278" 
d="M64 -10h-122l272 742h122z" />
    <glyph glyph-name="zero" unicode="0" horiz-adv-x="556" 
d="M168 255q0 -44 7 -73t20.5 -46.5t34 -24.5t48.5 -7t48.5 7t34 24.5t20.5 46.5t7 73v212q0 44 -7 73t-20.5 46.5t-34 24.5t-48.5 7t-48.5 -7t-34 -24.5t-20.5 -46.5t-7 -73v-212zM36 482q0 116 62 183t180 67t180 -67t62 -183v-242q0 -116 -62 -183t-180 -67t-180 67
t-62 183v242z" />
    <glyph glyph-name="one" unicode="1" horiz-adv-x="556" 
d="M235 552h-111v79q40 8 64.5 18.5t41 23.5t28 27.5t24.5 31.5h79v-732h-126v552z" />
    <glyph glyph-name="two" unicode="2" horiz-adv-x="556" 
d="M40 0v117q72 68 124.5 119.5t90 89.5t60.5 66t36.5 50t18 40t4.5 37q0 44 -24 71.5t-72 27.5q-51 0 -77 -27t-26 -68v-26h-132v34q0 40 15.5 76t44.5 64t70.5 44.5t94.5 16.5t96.5 -13.5t75 -40t49 -65.5t17.5 -91q0 -63 -32 -118.5t-78.5 -106t-98 -96t-90.5 -87.5h288
v-114h-455z" />
    <glyph glyph-name="three" unicode="3" horiz-adv-x="556" 
d="M166 212q0 -56 25.5 -82t81.5 -26q51 0 78 30t27 77q0 61 -35.5 86.5t-110.5 26.5v114q70 0 99.5 21t29.5 72q0 38 -24 62.5t-69 24.5q-37 0 -61 -23.5t-26 -60.5h-132q0 50 17.5 87t47.5 62t70 37t85 12q49 0 90 -12.5t71 -37.5t46.5 -61.5t16.5 -84.5t-22 -91.5
t-65 -65.5q58 -23 81 -68t23 -106q0 -54 -18.5 -94t-50.5 -67t-74.5 -40.5t-91.5 -13.5q-122 0 -181.5 60t-59.5 162h132z" />
    <glyph glyph-name="four" unicode="4" horiz-adv-x="556" 
d="M317 292v282h-2l-205 -282h207zM306 722h137v-430h101v-102h-101v-190h-126v190h-317v116z" />
    <glyph glyph-name="five" unicode="5" horiz-adv-x="556" 
d="M167 207q-2 -51 26 -77t77 -26q64 0 88 40.5t24 116.5q0 67 -24 103t-81 36q-34 0 -60.5 -15t-45.5 -41h-109v378h417v-114h-303v-150q29 20 60 32t71 12q58 0 97.5 -17.5t64 -49t35 -77t10.5 -100.5q0 -63 -13.5 -112.5t-42.5 -84t-75 -53t-111 -18.5q-68 0 -113 18.5
t-73 49t-39.5 69.5t-11.5 80h132z" />
    <glyph glyph-name="six" unicode="6" horiz-adv-x="556" 
d="M168 255q0 -44 7 -73t20.5 -46.5t34 -24.5t48.5 -7q52 0 78 35t26 98q0 60 -29 88.5t-75 28.5q-32 0 -58 -18t-52 -41v-40zM369 533q-2 37 -28 61t-63 24q-28 0 -48.5 -7t-34 -24.5t-20.5 -46.5t-7 -73v-67q34 26 73 41t82 15q47 0 83 -17t60 -46.5t36 -68.5t12 -82
q0 -56 -14 -102t-42.5 -79.5t-73.5 -52t-106 -18.5q-118 0 -180 67t-62 183v242q0 116 62 183t180 67q94 0 154.5 -50.5t68.5 -148.5h-132z" />
    <glyph glyph-name="seven" unicode="7" horiz-adv-x="556" 
d="M30 722h456v-66l-195 -656h-144l200 608h-317v114z" />
    <glyph glyph-name="eight" unicode="8" horiz-adv-x="556" 
d="M370 525q0 19 -7 36t-19 29.5t-29 20t-37 7.5t-37 -7.5t-29 -20t-19 -29.5t-7 -36t7 -35.5t19.5 -29t29.5 -19.5t36 -7t36 7t29.5 19.5t19.5 29t7 35.5zM388 209q0 51 -29.5 81t-80.5 30t-80.5 -30t-29.5 -81q0 -47 24.5 -76t85.5 -29t85.5 29t24.5 76zM520 205
q0 -54 -18.5 -94t-51 -67t-77 -40.5t-95.5 -13.5t-95.5 13.5t-77 40.5t-51 67t-18.5 94q0 61 23.5 106t81.5 68q-43 22 -65 65.5t-22 91.5q0 50 17.5 87t47.5 61t71 36t88 12t88 -12t71 -36t47.5 -61t17.5 -87q0 -48 -22 -91.5t-65 -65.5q58 -23 81.5 -68t23.5 -106z" />
    <glyph glyph-name="nine" unicode="9" horiz-adv-x="556" 
d="M388 467q0 44 -7 73t-20.5 46.5t-34 24.5t-48.5 7q-52 0 -78 -35t-26 -98q0 -60 29 -88.5t75 -28.5q32 0 58 18t52 41v40zM187 189q2 -37 28 -61t63 -24q28 0 48.5 7t34 24.5t20.5 46.5t7 73v67q-34 -26 -73 -41t-82 -15q-47 0 -83 17t-60 46.5t-36 68t-12 82.5
q0 55 14 101.5t42.5 80t73 52t106.5 18.5q118 0 180 -67t62 -183v-242q0 -116 -62 -183t-180 -67q-94 0 -154.5 50.5t-68.5 148.5h132z" />
    <glyph glyph-name="colon" unicode=":" horiz-adv-x="278" 
d="M68 300v142h142v-142h-142zM68 0v142h142v-142h-142z" />
    <glyph glyph-name="semicolon" unicode=";" horiz-adv-x="278" 
d="M68 300v142h142v-142h-142zM128 0h-60v142h142v-142l-63 -148h-70z" />
    <glyph glyph-name="less" unicode="&#x3c;" horiz-adv-x="600" 
d="M572 -9l-544 233v96l544 233v-117l-389 -164l389 -164v-117z" />
    <glyph glyph-name="equal" unicode="=" horiz-adv-x="600" 
d="M572 89h-544v122h544v-122zM572 333h-544v122h544v-122z" />
    <glyph glyph-name="greater" unicode="&#x3e;" horiz-adv-x="600" 
d="M28 108l389 164l-389 164v117l544 -233v-96l-544 -233v117z" />
    <glyph glyph-name="question" unicode="?" horiz-adv-x="444" 
d="M128 0v142h142v-142h-142zM10 574q19 75 71.5 116.5t129.5 41.5q36 0 69.5 -11t59.5 -32.5t42 -53t16 -73.5q0 -35 -22.5 -70.5t-49.5 -70t-49.5 -68t-22.5 -63.5v-50h-110v98q0 18 20 48.5t44 64.5t44 66.5t20 54.5q0 26 -19.5 42t-43.5 16q-15 0 -30 -7.5t-26.5 -20
t-19 -28.5t-8.5 -32z" />
    <glyph glyph-name="at" unicode="@" horiz-adv-x="800" 
d="M411 452q-23 0 -43 -10.5t-34 -27t-22 -37.5t-8 -42q0 -36 20.5 -59.5t56.5 -23.5q24 0 44.5 10t34.5 27t22 38t8 44q0 36 -22 58.5t-57 22.5zM530 542h90l-50 -244q-2 -8 -4.5 -18.5t-2.5 -20.5q0 -19 15 -19q17 0 35 10.5t32.5 30.5t24 50.5t9.5 70.5q0 60 -20 106
t-55.5 77t-84 47t-105.5 16q-63 0 -113.5 -22t-86.5 -60.5t-55.5 -91t-19.5 -114.5q0 -66 21.5 -118.5t60 -90t92 -57.5t117.5 -20q58 0 108.5 19t88.5 51h92q-52 -75 -128 -114.5t-169 -39.5q-79 0 -149 27.5t-122.5 77t-83 117.5t-30.5 148q0 79 30 147t81.5 118t121 78.5
t147.5 28.5q66 0 128.5 -21.5t110.5 -60.5t77.5 -95t29.5 -125q0 -55 -14.5 -97.5t-37.5 -74.5t-51.5 -54.5t-56.5 -36t-53 -19.5t-40 -6q-21 0 -37 13t-17 39l-2 1q-19 -21 -46 -37t-54 -16q-32 0 -61 14.5t-51 38.5t-35 56t-13 67q0 45 14.5 87.5t41 75.5t64.5 53t85 20
q37 0 67.5 -15t51.5 -47z" />
    <glyph glyph-name="A" unicode="A" horiz-adv-x="556" 
d="M210 274h137l-67 292h-2zM13 0l179 722h177l174 -722h-132l-35 152h-191l-39 -152h-133z" />
    <glyph glyph-name="B" unicode="B" horiz-adv-x="556" 
d="M200 436h48q47 0 75 24t28 61q0 40 -23.5 63.5t-72.5 23.5h-55v-172zM200 114h58q54 0 82 28.5t28 76.5q0 52 -33 77.5t-87 25.5h-48v-208zM62 722h194q112 0 172.5 -46t60.5 -140q0 -96 -89 -150q28 -18 48.5 -35.5t33 -38t18.5 -45.5t6 -59q0 -54 -17.5 -93t-49 -64.5
t-76 -38t-99.5 -12.5h-202v722z" />
    <glyph glyph-name="C" unicode="C" horiz-adv-x="556" 
d="M188 214q0 -60 24 -81t66 -21t66 21t24 81v48h138v-30q0 -67 -17 -113t-47 -74.5t-72 -41.5t-92 -13t-92 13t-72 41.5t-47 74.5t-17 113v258q0 67 17 113t47 74.5t72 41.5t92 13t92 -13t72 -41.5t47 -74.5t17 -113v-2h-138v20q0 60 -24 81t-66 21t-66 -21t-24 -81v-294z
" />
    <glyph glyph-name="D" unicode="D" horiz-adv-x="556" 
d="M200 122h48q57 0 88.5 31.5t31.5 112.5v190q0 77 -27.5 110.5t-92.5 33.5h-48v-478zM62 722h192q59 0 105 -13.5t78 -43.5t49.5 -77.5t19.5 -115.5v-222q-2 -68 -19.5 -115.5t-49.5 -77.5t-78 -43.5t-105 -13.5h-192v722z" />
    <glyph glyph-name="E" unicode="E" 
d="M62 0v722h378v-122h-240v-166h183v-122h-183v-190h250v-122h-388z" />
    <glyph glyph-name="F" unicode="F" horiz-adv-x="444" 
d="M62 0v722h360v-122h-222v-166h174v-122h-174v-312h-138z" />
    <glyph glyph-name="G" unicode="G" horiz-adv-x="556" 
d="M407 60q-28 -32 -59 -51t-70 -19q-50 0 -92 13t-72 41.5t-47 74.5t-17 113v258q0 67 17 113t47 74.5t72 41.5t92 13q106 0 162 -60.5t60 -184.5h-138q0 70 -23 96.5t-61 26.5q-42 0 -66 -21t-24 -81v-294q0 -60 24 -81t66 -21q39 0 61.5 26.5t22.5 73.5v44h-97v114h235
v-370h-72z" />
    <glyph glyph-name="H" unicode="H" horiz-adv-x="611" 
d="M70 0v722h138v-288h195v288h138v-722h-138v312h-195v-312h-138z" />
    <glyph glyph-name="I" unicode="I" horiz-adv-x="278" 
d="M70 0v722h138v-722h-138z" />
    <glyph glyph-name="J" unicode="J" horiz-adv-x="333" 
d="M263 722v-569q0 -73 -47 -118t-138 -45q-23 0 -38 0.5t-30 2.5v122q11 -1 19.5 -2t17.5 -1q47 0 62.5 15t15.5 54v541h138z" />
    <glyph glyph-name="K" unicode="K" horiz-adv-x="556" 
d="M62 0v722h138v-298h2l179 298h151l-186 -291l207 -431h-155l-144 303l-54 -82v-221h-138z" />
    <glyph glyph-name="L" unicode="L" horiz-adv-x="444" 
d="M62 0v722h138v-600h222v-122h-360z" />
    <glyph glyph-name="M" unicode="M" horiz-adv-x="778" 
d="M70 0v722h193l125 -474h2l125 474h193v-722h-118v568h-2l-147 -568h-104l-147 568h-2v-568h-118z" />
    <glyph glyph-name="N" unicode="N" horiz-adv-x="611" 
d="M70 0v722h151l192 -428h2v428h126v-722h-132l-211 466h-2v-466h-126z" />
    <glyph glyph-name="O" unicode="O" horiz-adv-x="556" 
d="M188 214q0 -60 24 -81t66 -21t66 21t24 81v294q0 60 -24 81t-66 21t-66 -21t-24 -81v-294zM50 490q0 67 17 113t47 74.5t72 41.5t92 13t92 -13t72 -41.5t47 -74.5t17 -113v-258q0 -67 -17 -113t-47 -74.5t-72 -41.5t-92 -13t-92 13t-72 41.5t-47 74.5t-17 113v258z" />
    <glyph glyph-name="P" unicode="P" horiz-adv-x="556" 
d="M208 404h74q102 0 102 102t-102 102h-74v-204zM70 0v722h199q128 0 190.5 -56.5t62.5 -159.5t-62.5 -159.5t-190.5 -56.5h-61v-290h-138z" />
    <glyph glyph-name="Q" unicode="Q" horiz-adv-x="556" 
d="M269 300q34 -5 57 -22.5t40 -43.5h2v274q0 60 -24 81t-66 21t-66 -21t-24 -81v-294q0 -60 24 -81t66 -21q33 0 52 11q-14 20 -29 35.5t-32 21.5v120zM549 -53q-51 0 -85 20.5t-60 50.5q-27 -15 -58.5 -21.5t-67.5 -6.5q-50 0 -92 13t-72 41.5t-47 74.5t-17 113v258
q0 67 17 113t47 74.5t72 41.5t92 13t92 -13t72 -41.5t47 -74.5t17 -113v-258q0 -86 -29 -141q14 -11 31.5 -17t40.5 -7v-120z" />
    <glyph glyph-name="R" unicode="R" horiz-adv-x="556" 
d="M200 408h71q46 0 72 23.5t26 76.5t-26 76.5t-72 23.5h-71v-200zM386 0l-120 294h-66v-294h-138v722h200q125 0 185 -56.5t60 -159.5q0 -68 -25.5 -115t-83.5 -69l136 -322h-148z" />
    <glyph glyph-name="S" unicode="S" horiz-adv-x="556" 
d="M367 521q-17 51 -41 74t-60 23q-37 0 -56.5 -21t-19.5 -58q0 -27 23 -47.5t57 -39.5t74 -40.5t74 -50.5t57 -69t23 -96q0 -47 -15.5 -85t-45 -65t-72.5 -41.5t-97 -14.5q-85 0 -146.5 48t-89.5 155l136 29q6 -33 17.5 -55.5t26.5 -36.5t31.5 -20t31.5 -6q36 0 60.5 22.5
t24.5 63.5q0 34 -23 58.5t-57 45.5t-74 41.5t-74 47t-57 61.5t-23 86q0 94 54.5 148t162.5 54q46 0 83 -13t65 -36.5t46.5 -55.5t27.5 -70z" />
    <glyph glyph-name="T" unicode="T" 
d="M480 722v-122h-161v-600h-138v600h-161v122h460z" />
    <glyph glyph-name="U" unicode="U" horiz-adv-x="611" 
d="M208 722v-505q0 -52 23 -78.5t74 -26.5q98 0 98 105v505h138v-506q0 -60 -17 -102.5t-48 -70t-74.5 -40.5t-96.5 -13t-96.5 13t-74.5 40.5t-47.5 70t-16.5 102.5v506h138z" />
    <glyph glyph-name="V" unicode="V" horiz-adv-x="556" 
d="M15 722h136l127 -516h2l126 516h135l-184 -722h-157z" />
    <glyph glyph-name="W" unicode="W" horiz-adv-x="833" 
d="M23 722h128l97 -472h2l99 472h133l100 -472h2l96 472h129l-158 -722h-133l-101 494h-2l-109 -494h-132z" />
    <glyph glyph-name="X" unicode="X" horiz-adv-x="556" 
d="M278 506l104 216h148l-175 -342l192 -380h-149l-120 255l-120 -255h-149l194 380l-177 342h148z" />
    <glyph glyph-name="Y" unicode="Y" horiz-adv-x="556" 
d="M280 431l117 291h147l-197 -430v-292h-138v292l-197 430h147z" />
    <glyph glyph-name="Z" unicode="Z" 
d="M61 722h400v-116l-273 -484h279v-122h-434v117l273 483h-245v122z" />
    <glyph glyph-name="bracketleft" unicode="[" horiz-adv-x="333" 
d="M50 -74v796h234v-60h-124v-676h124v-60h-234z" />
    <glyph glyph-name="backslash" unicode="\" horiz-adv-x="278" 
d="M-58 732h122l272 -742h-122z" />
    <glyph glyph-name="bracketright" unicode="]" horiz-adv-x="333" 
d="M283 722v-796h-234v60h124v676h-124v60h234z" />
    <glyph glyph-name="asciicircum" unicode="^" horiz-adv-x="600" 
d="M52 320l194 402h108l194 -402h-119l-129 282l-131 -282h-117z" />
    <glyph glyph-name="underscore" unicode="_" 
d="M0 -125v50h500v-50h-500z" />
    <glyph glyph-name="grave" unicode="`" horiz-adv-x="278" 
d="M131 756l93 -146h-101l-147 146h155z" />
    <glyph glyph-name="a" unicode="a" 
d="M309 266q-28 -10 -55 -22.5t-48.5 -28.5t-34.5 -34.5t-13 -39.5q0 -27 15 -42t41 -15q29 0 50.5 13.5t44.5 36.5v132zM48 385q3 45 21 77.5t45.5 52.5t62.5 29.5t73 9.5q50 0 85.5 -12t57.5 -34t32 -52.5t10 -66.5v-345q0 -11 2 -22t5 -22h-126q-2 11 -4 23.5t-5 29.5
q-28 -28 -65 -45.5t-85 -17.5q-57 0 -91 32t-34 98q0 47 21 82t58.5 61t88 46t109.5 38v40q0 35 -19 50t-46 15q-29 0 -49.5 -19t-20.5 -48h-126z" />
    <glyph glyph-name="b" unicode="b" 
d="M186 123q36 -39 76 -39q13 0 24 5t19.5 19.5t13.5 39.5t5 66v116q0 40 -5 65.5t-13.5 40t-19.5 19.5t-24 5q-40 0 -76 -39v-298zM60 0v722h126v-228q45 33 72.5 46.5t53.5 13.5q74 0 106 -55t32 -161v-132q0 -106 -32 -161t-106 -55q-21 0 -41.5 7t-38.5 18t-32 24.5
t-22 26.5h-2v-66h-116z" />
    <glyph glyph-name="c" unicode="c" 
d="M324 356v24q0 32 -20.5 48t-53.5 16t-53.5 -16t-20.5 -48v-216q0 -32 20.5 -48t53.5 -16t53.5 16t20.5 48v34h126v-2q0 -108 -53 -157t-147 -49q-95 0 -147.5 49t-52.5 157v152q0 108 52.5 157t147.5 49q93 0 145 -47t54 -151h-125z" />
    <glyph glyph-name="d" unicode="d" 
d="M314 421q-36 39 -76 39q-13 0 -24 -5t-19.5 -19.5t-13.5 -40t-5 -65.5v-116q0 -41 5 -66t13.5 -39.5t19.5 -19.5t24 -5q40 0 76 39v298zM324 0v66h-2q-8 -13 -22 -26.5t-32 -24.5t-38.5 -18t-41.5 -7q-74 0 -106 55t-32 161v132q0 106 32 161t106 55q26 0 53.5 -13.5
t72.5 -46.5v228h126v-722h-116z" />
    <glyph glyph-name="e" unicode="e" 
d="M324 344v30q0 36 -18 57t-56 21t-56 -21t-18 -57v-30h148zM176 242v-72q0 -41 21 -59.5t53 -18.5q40 0 57 22t17 54h126q-5 -85 -54.5 -131.5t-145.5 -46.5q-45 0 -82 13.5t-63 38.5t-40.5 60.5t-14.5 80.5v178q0 45 14.5 80.5t40.5 60.5t63 38.5t82 13.5
q44 0 80.5 -13.5t63 -37.5t41.5 -58t15 -76v-127h-274z" />
    <glyph glyph-name="f" unicode="f" horiz-adv-x="278" 
d="M270 622h-36q-23 0 -33 -13t-10 -33v-56h75v-102h-75v-418h-126v418h-57v102h57v52q0 47 9.5 78t28.5 49t45.5 25.5t61.5 7.5q14 0 29 -2t31 -4v-104z" />
    <glyph glyph-name="g" unicode="g" 
d="M168 -24q-10 -10 -18 -19.5t-8 -24.5q0 -21 29.5 -30.5t85.5 -9.5q45 0 70 11t25 32q0 14 -8.5 20.5t-37.5 8.5zM292 347q0 105 -66 105q-36 0 -51 -27t-15 -91q0 -51 15.5 -76.5t44.5 -25.5q20 0 34 4.5t22.5 17.5t12 35t3.5 58zM478 444q-8 2 -19.5 5t-19.5 3
q-10 0 -20 -4t-23 -8q6 -27 11 -49t5 -47q0 -103 -44 -158.5t-138 -55.5q-14 0 -26 1t-26 6q-5 -8 -13.5 -15t-8.5 -17q0 -17 23.5 -22t58.5 -6t76 -3.5t76 -14.5t58.5 -38.5t23.5 -75.5q0 -35 -17.5 -60.5t-49 -42.5t-76 -25.5t-99.5 -8.5q-101 0 -154.5 26.5t-53.5 72.5
q0 15 7.5 27.5t19 23t25 19t24.5 15.5q-23 14 -37.5 32.5t-14.5 44.5q0 16 7.5 29.5t19 25t24.5 20.5t25 16q-46 30 -64 75t-18 114q0 44 9 81.5t31 65t57.5 43t88.5 15.5q39 0 78.5 -17t63.5 -46q24 30 49.5 46.5t60.5 16.5v-110z" />
    <glyph glyph-name="h" unicode="h" 
d="M60 0v722h126v-240q32 30 65 51t72 21q58 0 87.5 -32t29.5 -108v-414h-126v400q0 27 -10 43.5t-36 16.5q-20 0 -41 -15.5t-41 -33.5v-411h-126z" />
    <glyph glyph-name="i" unicode="i" horiz-adv-x="278" 
d="M76 638v114h126v-114h-126zM202 544v-544h-126v544h126z" />
    <glyph glyph-name="j" unicode="j" horiz-adv-x="278" 
d="M76 638v114h126v-114h-126zM202 544v-588q0 -39 -12.5 -67t-33.5 -46t-49 -26.5t-59 -8.5q-25 0 -46 3v111q41 0 57.5 12t16.5 38v572h126z" />
    <glyph glyph-name="k" unicode="k" 
d="M66 0v722h126v-389h2l134 211h141l-125 -184l136 -360h-133l-92 255l-63 -89v-166h-126z" />
    <glyph glyph-name="l" unicode="l" horiz-adv-x="278" 
d="M76 722h126v-722h-126v722z" />
    <glyph glyph-name="m" unicode="m" horiz-adv-x="722" 
d="M60 544h122v-62q31 28 63 50t72 22q35 0 60 -22t36 -60q29 32 61 57t73 25q57 0 86 -35t29 -109v-410h-126v414q0 27 -9 36.5t-24 9.5q-9 0 -20 -4.5t-22.5 -12t-21 -16t-15.5 -16.5v-411h-126v414q0 27 -9.5 36.5t-24.5 9.5q-10 0 -21.5 -4.5t-22 -12t-19.5 -16
t-15 -16.5v-411h-126v544z" />
    <glyph glyph-name="n" unicode="n" 
d="M60 0v544h122v-62q35 30 68.5 51t72.5 21q58 0 87.5 -32t29.5 -108v-414h-126v400q0 27 -10 43.5t-36 16.5q-20 0 -41 -15.5t-41 -33.5v-411h-126z" />
    <glyph glyph-name="o" unicode="o" 
d="M176 164q0 -32 20.5 -48t53.5 -16t53.5 16t20.5 48v216q0 32 -20.5 48t-53.5 16t-53.5 -16t-20.5 -48v-216zM50 348q0 108 52.5 157t147.5 49q94 0 147 -49t53 -157v-152q0 -108 -53 -157t-147 -49q-95 0 -147.5 49t-52.5 157v152z" />
    <glyph glyph-name="p" unicode="p" 
d="M186 123q36 -39 76 -39q13 0 24 5t19.5 19.5t13.5 39.5t5 66v116q0 40 -5 65.5t-13.5 40t-19.5 19.5t-24 5q-40 0 -76 -39v-298zM176 544v-66h2q8 13 22 26.5t32 24.5t38.5 18t41.5 7q74 0 106 -55t32 -161v-132q0 -106 -32 -161t-106 -55q-26 0 -53.5 13.5t-72.5 46.5
v-242h-126v736h116z" />
    <glyph glyph-name="q" unicode="q" 
d="M314 421q-36 39 -76 39q-13 0 -24 -5t-19.5 -19.5t-13.5 -40t-5 -65.5v-116q0 -41 5 -66t13.5 -39.5t19.5 -19.5t24 -5q40 0 76 39v298zM440 544v-736h-126v242q-45 -33 -72.5 -46.5t-53.5 -13.5q-74 0 -106 55t-32 161v132q0 106 32 161t106 55q21 0 41.5 -7t38.5 -18
t32 -24.5t22 -26.5h2v66h116z" />
    <glyph glyph-name="r" unicode="r" horiz-adv-x="333" 
d="M60 0v544h123v-72h2q22 41 52 61.5t78 20.5v-136q-16 5 -33 9.5t-34 4.5q-31 0 -46.5 -19t-15.5 -41v-372h-126z" />
    <glyph glyph-name="s" unicode="s" horiz-adv-x="444" 
d="M300 378q-13 38 -35.5 56t-51.5 18q-22 0 -36.5 -14t-14.5 -35t18 -36.5t45.5 -29.5t59.5 -29t59.5 -35.5t45.5 -49t18 -68.5q0 -41 -13.5 -71.5t-37.5 -51.5t-57.5 -31.5t-72.5 -10.5q-29 0 -56 5t-52.5 21.5t-49.5 47t-47 81.5l113 31q8 -38 31 -61t61 -23
q29 0 45 12.5t16 35.5q0 26 -18 43t-45.5 30.5t-59.5 27.5t-59.5 34.5t-45.5 50.5t-18 76q0 39 14.5 67.5t38.5 47t55 28t64 9.5q71 0 119 -37t71 -99z" />
    <glyph glyph-name="t" unicode="t" horiz-adv-x="278" 
d="M6 418v102h50v148h126v-148h81v-102h-81v-278q0 -20 15.5 -30t41.5 -10h13t12 1v-106q-18 -3 -36 -4t-36 -1q-62 0 -99 24.5t-37 83.5v320h-50z" />
    <glyph glyph-name="u" unicode="u" 
d="M440 544v-544h-122v62q-35 -30 -68.5 -51t-72.5 -21q-58 0 -87.5 32t-29.5 108v414h126v-400q0 -27 10 -43.5t36 -16.5q20 0 41 15.5t41 33.5v411h126z" />
    <glyph glyph-name="v" unicode="v" horiz-adv-x="444" 
d="M221 194h2l83 350h126l-148 -544h-124l-148 544h126z" />
    <glyph glyph-name="w" unicode="w" horiz-adv-x="667" 
d="M13 544h118l73 -340h2l73 340h108l77 -340h2l69 340h118l-128 -544h-118l-77 340h-2l-67 -340h-118z" />
    <glyph glyph-name="x" unicode="x" horiz-adv-x="444" 
d="M17 544h134l71 -156l73 156h134l-138 -265l147 -279h-134l-82 176l-82 -176h-134l149 280z" />
    <glyph glyph-name="y" unicode="y" horiz-adv-x="444" 
d="M32 -80q9 -2 18 -2h19q21 0 37.5 8t28.5 19t18.5 23.5t6.5 21.5q0 24 -6.5 52t-16.5 63l-126 439h128l85 -360h2l79 360h128l-145 -542q-15 -55 -32.5 -92.5t-42.5 -60t-59.5 -32t-81.5 -9.5q-9 0 -19 0.5t-21 1.5v110z" />
    <glyph glyph-name="z" unicode="z" horiz-adv-x="444" 
d="M51 544h362v-108l-231 -326h231v-110h-382v108l227 326h-207v110z" />
    <glyph glyph-name="braceleft" unicode="{" horiz-adv-x="333" 
d="M261 672h-31q-27 0 -40 -14t-13 -47v-194q0 -43 -21.5 -64t-57.5 -27v-2q36 -6 57.5 -27t21.5 -64v-196q0 -33 13 -47t40 -14h31v-60h-79q-21 0 -41.5 7t-37 21.5t-26.5 37t-10 53.5v197q0 38 -20.5 50.5t-50.5 12.5v60q30 0 50.5 12.5t20.5 50.5v195q0 31 10 53.5
t26.5 37t37 21.5t41.5 7h79v-60z" />
    <glyph glyph-name="bar" unicode="|" horiz-adv-x="222" 
d="M50 732h122v-742h-122v742z" />
    <glyph glyph-name="braceright" unicode="}" horiz-adv-x="333" 
d="M72 -24h31q27 0 40 14t13 47v194q0 43 21.5 64t57.5 27v2q-36 6 -57.5 27t-21.5 64v196q0 33 -13 47t-40 14h-31v60h79q21 0 41.5 -7t37 -21.5t26.5 -37t10 -53.5v-197q0 -38 20.5 -50.5t50.5 -12.5v-60q-30 0 -50.5 -12.5t-20.5 -50.5v-195q0 -31 -10 -53.5t-26.5 -37
t-37 -21.5t-41.5 -7h-79v60z" />
    <glyph glyph-name="asciitilde" unicode="~" horiz-adv-x="600" 
d="M548 271q-12 -17 -25 -33.5t-28.5 -29.5t-35.5 -21t-45 -8q-32 0 -58.5 11.5t-52.5 25.5q-27 14 -57.5 25t-69.5 11q-16 0 -28.5 -7t-23 -18t-19 -24.5t-14.5 -27.5l-39 96q9 17 21 34t28.5 30t37.5 21t48 8q28 0 59.5 -11.5t63 -25t60 -25t51.5 -11.5q14 0 26.5 7t23 18
t20.5 25t19 28z" />
    <glyph glyph-name="uni00A0" unicode="&#xa0;" horiz-adv-x="278" 
 />
    <glyph glyph-name="exclamdown" unicode="&#xa1;" horiz-adv-x="278" 
d="M210 544v-142h-142v142h142zM66 -178l28 478h90l28 -478h-146z" />
    <glyph glyph-name="cent" unicode="&#xa2;" horiz-adv-x="556" 
d="M270 444h-2q-39 0 -60.5 -16t-21.5 -48v-216q0 -16 7 -29zM354 356v24q0 24 -16 40l-82 -319q4 -1 12 -1q86 0 86 64v34h126v-2q0 -108 -54.5 -157t-157.5 -49q-8 0 -16.5 0.5t-17.5 1.5l-36 -132h-89l42 154q-44 23 -67.5 68t-23.5 114v152q0 108 53.5 157t154.5 49h15
q8 0 16 -2l34 124h89l-39 -144q46 -20 70.5 -63.5t25.5 -112.5h-125z" />
    <glyph glyph-name="sterling" unicode="&#xa3;" horiz-adv-x="556" 
d="M16 318v88h83q-6 32 -10.5 65.5t-4.5 65.5q0 48 16.5 84.5t44.5 61t65 37t78 12.5q122 0 177.5 -57t55.5 -157h-126q-4 47 -24 75.5t-71 28.5q-39 0 -61.5 -24.5t-22.5 -65.5q0 -34 5 -65t10 -61h132v-88h-120q0 -10 -1 -31.5t-4 -47t-8 -50.5t-12 -41q28 -18 57 -31
t67 -13t53 29.5t18 84.5h120q0 -44 -7 -85.5t-27 -73t-55 -50.5t-92 -19q-26 0 -46 2.5t-40.5 9.5t-44.5 19.5t-57 33.5q-20 -17 -36 -29.5t-32.5 -20.5t-34 -11.5t-38.5 -3.5v122q23 1 40.5 13.5t29 34t17 50.5t5.5 64q0 20 -3 44h-96z" />
    <glyph glyph-name="currency" unicode="&#xa4;" horiz-adv-x="556" 
d="M414 361q0 31 -9.5 58t-27 47t-42.5 31.5t-57 11.5t-57 -11.5t-42.5 -31.5t-27 -47t-9.5 -58t9.5 -58t27 -47t42.5 -31.5t57 -11.5t57 11.5t42.5 31.5t27 47t9.5 58zM479 102l-57 58q-24 -23 -62.5 -36t-81.5 -13t-81.5 13t-62.5 36l-57 -58l-58 58l56 56
q-22 26 -33.5 64.5t-11.5 80.5t11.5 80.5t33.5 64.5l-56 56l58 58l57 -58q24 23 62.5 36t81.5 13t81.5 -13t62.5 -36l57 58l58 -58l-56 -56q22 -26 33.5 -64.5t11.5 -80.5t-11.5 -80.5t-33.5 -64.5l56 -56z" />
    <glyph glyph-name="yen" unicode="&#xa5;" horiz-adv-x="556" 
d="M416 722h122l-125 -270h86v-88h-126l-32 -72h158v-88h-162v-204h-118v204h-162v88h158l-32 72h-126v88h86l-125 270h122l140 -322z" />
    <glyph glyph-name="brokenbar" unicode="&#xa6;" horiz-adv-x="222" 
d="M50 732h122v-284h-122v284zM50 274h122v-284h-122v284z" />
    <glyph glyph-name="section" unicode="&#xa7;" 
d="M352 271q0 6 -3 13t-10.5 17.5t-20.5 25t-33 36.5q-35 38 -60 56.5t-38 18.5q-15 0 -26.5 -10t-12.5 -27q0 -7 2.5 -15.5t9.5 -19.5t19 -25.5t31 -33.5q41 -43 65 -61.5t38 -18.5q19 0 29 13t10 31zM334 598q-16 19 -36 34.5t-46 15.5q-20 0 -33.5 -12t-13.5 -30
q0 -19 18 -42t45 -48.5t58.5 -53.5t58.5 -58.5t45 -62.5t18 -66q0 -50 -31.5 -78t-77.5 -36q23 -24 37.5 -53.5t14.5 -63.5q0 -31 -12 -55t-31.5 -40t-46 -24.5t-54.5 -8.5q-32 0 -55.5 6.5t-41.5 18t-33.5 27t-30.5 33.5l68 53q11 -21 34 -37.5t56 -16.5q20 0 35.5 12.5
t15.5 35.5q0 21 -18 46t-45 52.5t-58.5 56.5t-58.5 58t-45 57.5t-18 55.5q0 34 7.5 57t21 38t33 23t42.5 12q-23 27 -35 52t-12 60q0 24 10 45t28 37t42.5 25t53.5 9q52 0 89 -19t70 -61z" />
    <glyph glyph-name="dieresis" unicode="&#xa8;" horiz-adv-x="278" 
d="M294 732v-114h-120v114h120zM104 732v-114h-120v114h120z" />
    <glyph glyph-name="copyright" unicode="&#xa9;" horiz-adv-x="800" 
d="M594 305q-6 -38 -22.5 -67.5t-40.5 -49.5t-54 -30t-62 -10q-47 0 -85.5 16.5t-65.5 45.5t-41.5 68.5t-14.5 85.5t14 86t40.5 68.5t64.5 45t86 16.5q67 0 116 -38.5t61 -113.5h-86q-7 35 -33 49.5t-58 14.5q-49 0 -75 -34t-26 -92q0 -56 28 -93t75 -37q37 0 61 16.5
t28 52.5h90zM669 361q0 63 -21.5 115t-58 89.5t-85.5 58t-104 20.5q-56 0 -105 -20.5t-85.5 -58t-57.5 -89.5t-21 -115t21 -115t57.5 -89.5t85.5 -58t105 -20.5q55 0 104 20.5t85.5 58t58 89.5t21.5 115zM400 -10q-75 0 -144 25t-122.5 73t-85 117t-31.5 156t31.5 156
t85 117t122.5 73t144 25t144 -25t122.5 -73t85 -117t31.5 -156t-31.5 -156t-85 -117t-122.5 -73t-144 -25z" />
    <glyph glyph-name="ordfeminine" unicode="&#xaa;" horiz-adv-x="300" 
d="M182 548q-31 -12 -56.5 -26.5t-25.5 -36.5q0 -14 8.5 -19.5t19.5 -5.5q19 0 32 8t22 22v58zM16 627q2 31 14 50.5t30 31.5q20 14 42.5 18.5t48.5 4.5q66 0 93.5 -27t27.5 -72v-207q0 -7 1 -13.5t3 -12.5h-86q-2 6 -2.5 14t-2.5 18q-15 -17 -39 -27.5t-55 -10.5
q-37 0 -59 19t-22 59q0 28 13.5 49.5t37 37.5t55 28t66.5 23v22q0 30 -34 30q-19 0 -30.5 -10.5t-11.5 -24.5h-90z" />
    <glyph glyph-name="guillemotleft" unicode="&#xab;" horiz-adv-x="556" 
d="M60 272l122 160h110l-122 -160l122 -160h-110zM264 272l122 160h110l-122 -160l122 -160h-110z" />
    <glyph glyph-name="logicalnot" unicode="&#xac;" horiz-adv-x="600" 
d="M450 333h-422v122h544v-366h-122v244z" />
    <glyph glyph-name="uni00AD" unicode="&#xad;" horiz-adv-x="333" 
d="M43 217v110h246v-110h-246z" />
    <glyph glyph-name="registered" unicode="&#xae;" horiz-adv-x="800" 
d="M337 397h77q37 0 50 11.5t13 42.5q0 23 -16.5 32.5t-61.5 9.5h-62v-96zM337 158h-88v407h153q80 0 123.5 -26.5t43.5 -96.5q0 -56 -29 -80.5t-72 -27.5l94 -176h-97l-87 167h-41v-167zM669 361q0 63 -21.5 115t-58 89.5t-85.5 58t-104 20.5q-56 0 -105 -20.5t-85.5 -58
t-57.5 -89.5t-21 -115t21 -115t57.5 -89.5t85.5 -58t105 -20.5q55 0 104 20.5t85.5 58t58 89.5t21.5 115zM400 -10q-75 0 -144 25t-122.5 73t-85 117t-31.5 156t31.5 156t85 117t122.5 73t144 25t144 -25t122.5 -73t85 -117t31.5 -156t-31.5 -156t-85 -117t-122.5 -73
t-144 -25z" />
    <glyph glyph-name="macron" unicode="&#xaf;" horiz-adv-x="278" 
d="M-35 640v74h348v-74h-348z" />
    <glyph glyph-name="degree" unicode="&#xb0;" horiz-adv-x="400" 
d="M200 502q36 0 59 25.5t23 61.5t-23 61.5t-59 25.5t-59 -25.5t-23 -61.5t23 -61.5t59 -25.5zM200 446q-30 0 -56.5 11t-46 30.5t-30.5 45.5t-11 56t11 56t30.5 45.5t46 30.5t56.5 11t56.5 -11t46 -30.5t30.5 -45.5t11 -56t-11 -56t-30.5 -45.5t-46 -30.5t-56.5 -11z" />
    <glyph glyph-name="plusminus" unicode="&#xb1;" horiz-adv-x="600" 
d="M28 122h544v-122h-544v122zM239 544h122v-134h211v-122h-211v-134h-122v134h-211v122h211v134z" />
    <glyph glyph-name="twosuperior" unicode="&#xb2;" horiz-adv-x="333" 
d="M15 292v75q69 60 110.5 98.5t64.5 63.5t30.5 41.5t7.5 33.5q0 22 -13.5 38t-44.5 16q-33 0 -48 -15.5t-15 -35.5v-16h-90v21q0 24 10 45.5t29 38t46 26.5t61 10q69 0 112 -31.5t43 -94.5q0 -38 -19.5 -71t-48 -63t-61 -56t-57.5 -50h179v-74h-296z" />
    <glyph glyph-name="threesuperior" unicode="&#xb3;" horiz-adv-x="333" 
d="M100 420q0 -32 15 -46t50 -14q31 0 48 16.5t17 43.5q0 36 -22.5 50t-68.5 14v74q42 0 60.5 11.5t18.5 42.5q0 18 -15 32t-41 14q-23 0 -37 -14t-15 -35h-90q0 31 11.5 54.5t31 38.5t45 22.5t55.5 7.5q63 0 104 -30t41 -87q0 -29 -14 -55t-42 -40q38 -14 53 -40.5
t15 -63.5q0 -32 -12 -56.5t-33 -41t-49 -24.5t-59 -8q-80 0 -118.5 36.5t-38.5 97.5h90z" />
    <glyph glyph-name="acute" unicode="&#xb4;" horiz-adv-x="278" 
d="M302 756l-147 -146h-101l93 146h155z" />
    <glyph glyph-name="mu" unicode="&#xb5;" 
d="M440 544v-544h-122v62q-32 -28 -63.5 -48.5t-68.5 -23.5v-182h-126v736h126v-400q0 -27 10 -43.5t36 -16.5q20 0 41 15.5t41 33.5v411h126z" />
    <glyph glyph-name="paragraph" unicode="&#xb6;" horiz-adv-x="556" 
d="M190 370q-85 0 -132.5 46t-47.5 127q0 89 50 134t164 45h322v-84h-68v-722h-110v722h-68v-722h-110v454z" />
    <glyph glyph-name="periodcentered" unicode="&#xb7;" horiz-adv-x="278" 
d="M139 348q34 0 55 -23.5t21 -52.5t-21 -52.5t-55 -23.5t-55 23.5t-21 52.5t21 52.5t55 23.5z" />
    <glyph glyph-name="cedilla" unicode="&#xb8;" horiz-adv-x="278" 
d="M21 -161q18 -6 37 -11.5t38 -5.5q18 0 37 8.5t19 30.5q0 17 -12 27t-29 10q-12 0 -23 -2.5t-22 -5.5l-21 20l59 90h53l-42 -61l2 -2q7 5 15 6t16 1q17 0 33 -5.5t29 -15.5t20.5 -24.5t7.5 -32.5q0 -26 -11.5 -43.5t-30 -29t-41 -16.5t-44.5 -5q-29 0 -56 7t-53 18z" />
    <glyph glyph-name="onesuperior" unicode="&#xb9;" horiz-adv-x="333" 
d="M143 622h-67v54q23 4 38.5 10t25.5 13t17 15t14 18h62v-440h-90v330z" />
    <glyph glyph-name="ordmasculine" unicode="&#xba;" horiz-adv-x="300" 
d="M110 506q0 -19 9 -28.5t31 -9.5q40 0 40 38v114q0 38 -40 38q-42 0 -40 -38v-114zM20 609q0 65 34 94t96 29q61 0 95.5 -29t34.5 -94v-91q0 -66 -34.5 -95t-95.5 -29q-62 0 -96 29t-34 95v91z" />
    <glyph glyph-name="guillemotright" unicode="&#xbb;" horiz-adv-x="556" 
d="M374 112h-110l122 160l-122 160h110l122 -160zM170 112h-110l122 160l-122 160h110l122 -160z" />
    <glyph glyph-name="onequarter" unicode="&#xbc;" horiz-adv-x="834" 
d="M642 184v131h-2l-100 -131h102zM147 622h-67v54q23 4 38.5 10t25.5 13t17 15t14 18h62v-440h-90v330zM558 732h96l-405 -742h-96zM643 433h89v-249h66v-70h-66v-114h-90v114h-198v70z" />
    <glyph glyph-name="onehalf" unicode="&#xbd;" horiz-adv-x="834" 
d="M147 622h-67v54q23 4 38.5 10t25.5 13t17 15t14 18h62v-440h-90v330zM540 732h96l-405 -742h-96zM495 0v75q69 60 110.5 98.5t64.5 63.5t30.5 41.5t7.5 33.5q0 22 -13.5 38t-44.5 16q-33 0 -48 -15.5t-15 -35.5v-16h-90v21q0 24 10 45.5t29 38t46 26.5t61 10
q69 0 112 -31.5t43 -94.5q0 -38 -19.5 -71t-48 -63t-61 -56t-57.5 -50h179v-74h-296z" />
    <glyph glyph-name="threequarters" unicode="&#xbe;" horiz-adv-x="834" 
d="M642 184v131h-2l-100 -131h102zM578 732h96l-405 -742h-96zM126 420q0 -32 15 -46t50 -14q31 0 48 16.5t17 43.5q0 36 -22.5 50t-68.5 14v74q42 0 60.5 11.5t18.5 42.5q0 18 -15 32t-41 14q-23 0 -37 -14t-15 -35h-90q0 31 11.5 54.5t31 38.5t45 22.5t55.5 7.5
q63 0 104 -30t41 -87q0 -29 -14 -55t-42 -40q38 -14 53 -40.5t15 -63.5q0 -32 -12 -56.5t-33 -41t-49 -24.5t-59 -8q-80 0 -118.5 36.5t-38.5 97.5h90zM643 433h89v-249h66v-70h-66v-114h-90v114h-198v70z" />
    <glyph glyph-name="questiondown" unicode="&#xbf;" horiz-adv-x="444" 
d="M316 544v-142h-142v142h142zM434 -30q-19 -75 -71.5 -116.5t-129.5 -41.5q-36 0 -69.5 11t-59.5 32.5t-42 53t-16 73.5q0 34 22.5 70t49.5 70.5t49.5 68t22.5 63.5v50h110v-98q0 -18 -20 -48.5t-44 -64.5t-44 -66.5t-20 -54.5q0 -26 19.5 -42t43.5 -16q15 0 30 7.5
t26.5 20t19 28t8.5 32.5z" />
    <glyph glyph-name="Agrave" unicode="&#xc0;" horiz-adv-x="556" 
d="M210 274h137l-67 292h-2zM13 0l179 722h177l174 -722h-132l-35 152h-191l-39 -152h-133zM270 909l93 -146h-101l-147 146h155z" />
    <glyph glyph-name="Aacute" unicode="&#xc1;" horiz-adv-x="556" 
d="M210 274h137l-67 292h-2zM13 0l179 722h177l174 -722h-132l-35 152h-191l-39 -152h-133zM441 909l-147 -146h-101l93 146h155z" />
    <glyph glyph-name="Acircumflex" unicode="&#xc2;" horiz-adv-x="556" 
d="M210 274h137l-67 292h-2zM13 0l179 722h177l174 -722h-132l-35 152h-191l-39 -152h-133zM341 909l114 -146h-113l-64 82l-64 -82h-113l114 146h126z" />
    <glyph glyph-name="Atilde" unicode="&#xc3;" horiz-adv-x="556" 
d="M210 274h137l-67 292h-2zM13 0l179 722h177l174 -722h-132l-35 152h-191l-39 -152h-133zM461 897q-5 -24 -13 -45.5t-20.5 -38.5t-31.5 -27t-46 -10q-20 0 -39.5 5.5t-37.5 12t-35.5 12t-34.5 5.5q-19 0 -30 -12.5t-15 -29.5h-63q4 24 12.5 46t22.5 39t33.5 27t46.5 10
q20 0 39.5 -6t37.5 -12.5t34 -12.5t28 -6q18 0 30.5 12.5t16.5 30.5h65z" />
    <glyph glyph-name="Adieresis" unicode="&#xc4;" horiz-adv-x="556" 
d="M210 274h137l-67 292h-2zM13 0l179 722h177l174 -722h-132l-35 152h-191l-39 -152h-133zM433 885v-114h-120v114h120zM243 885v-114h-120v114h120z" />
    <glyph glyph-name="Aring" unicode="&#xc5;" horiz-adv-x="556" 
d="M210 274h137l-67 292h-2zM13 0l179 722h177l174 -722h-132l-35 152h-191l-39 -152h-133zM277 917q-23 0 -37.5 -15.5t-14.5 -37.5q0 -23 14.5 -38t37.5 -15q22 0 38 15t16 38q0 22 -16 37.5t-38 15.5zM277 757q-22 0 -41.5 8.5t-33.5 23t-22.5 34t-8.5 41.5t8.5 41.5
t22.5 34t33.5 23t41.5 8.5t41.5 -8.5t34.5 -23t23.5 -34t8.5 -41.5t-8.5 -41.5t-23.5 -34t-34.5 -23t-41.5 -8.5z" />
    <glyph glyph-name="AE" unicode="&#xc6;" horiz-adv-x="1000" 
d="M310 298h174v314h-18zM14 0l370 722h532v-122h-294v-166h221v-122h-221v-190h306v-122h-444v176h-236l-86 -176h-148z" />
    <glyph glyph-name="Ccedilla" unicode="&#xc7;" horiz-adv-x="556" 
d="M160 -161q18 -6 37 -11.5t38 -5.5q18 0 37 8.5t19 30.5q0 17 -12 27t-29 10q-12 0 -23 -2.5t-22 -5.5l-21 20l54 82q-42 4 -77 20t-59.5 44.5t-38 72t-13.5 103.5v258q0 67 17 113t47 74.5t72 41.5t92 13t92 -13t72 -41.5t47 -74.5t17 -113v-2h-138v20q0 60 -24 81
t-66 21t-66 -21t-24 -81v-294q0 -60 24 -81t66 -21t66 21t24 81v48h138v-30q0 -65 -16 -110.5t-44.5 -74t-68.5 -42.5t-88 -15l-35 -51l2 -2q7 5 15 6t16 1q17 0 33 -5.5t29 -15.5t20.5 -24.5t7.5 -32.5q0 -26 -11.5 -43.5t-30 -29t-41 -16.5t-44.5 -5q-29 0 -56 7t-53 18z
" />
    <glyph glyph-name="Egrave" unicode="&#xc8;" 
d="M62 0v722h378v-122h-240v-166h183v-122h-183v-190h250v-122h-388zM242 909l93 -146h-101l-147 146h155z" />
    <glyph glyph-name="Eacute" unicode="&#xc9;" 
d="M62 0v722h378v-122h-240v-166h183v-122h-183v-190h250v-122h-388zM413 909l-147 -146h-101l93 146h155z" />
    <glyph glyph-name="Ecircumflex" unicode="&#xca;" 
d="M62 0v722h378v-122h-240v-166h183v-122h-183v-190h250v-122h-388zM313 909l114 -146h-113l-64 82l-64 -82h-113l114 146h126z" />
    <glyph glyph-name="Edieresis" unicode="&#xcb;" 
d="M62 0v722h378v-122h-240v-166h183v-122h-183v-190h250v-122h-388zM405 885v-114h-120v114h120zM215 885v-114h-120v114h120z" />
    <glyph glyph-name="Igrave" unicode="&#xcc;" horiz-adv-x="278" 
d="M70 0v722h138v-722h-138zM131 909l93 -146h-101l-147 146h155z" />
    <glyph glyph-name="Iacute" unicode="&#xcd;" horiz-adv-x="278" 
d="M70 0v722h138v-722h-138zM302 909l-147 -146h-101l93 146h155z" />
    <glyph glyph-name="Icircumflex" unicode="&#xce;" horiz-adv-x="278" 
d="M70 0v722h138v-722h-138zM202 909l114 -146h-113l-64 82l-64 -82h-113l114 146h126z" />
    <glyph glyph-name="Idieresis" unicode="&#xcf;" horiz-adv-x="278" 
d="M70 0v722h138v-722h-138zM294 885v-114h-120v114h120zM104 885v-114h-120v114h120z" />
    <glyph glyph-name="Eth" unicode="&#xd0;" horiz-adv-x="556" 
d="M288 312h-88v-190h48q57 0 88.5 31.5t31.5 112.5v190q0 77 -27.5 110.5t-92.5 33.5h-48v-166h88v-122zM8 434h54v288h192q59 0 105 -13.5t78 -43.5t49.5 -77.5t19.5 -115.5v-222q-2 -68 -19.5 -115.5t-49.5 -77.5t-78 -43.5t-105 -13.5h-192v312h-54v122z" />
    <glyph glyph-name="Ntilde" unicode="&#xd1;" horiz-adv-x="611" 
d="M70 0v722h151l192 -428h2v428h126v-722h-132l-211 466h-2v-466h-126zM489 897q-5 -24 -13 -45.5t-20.5 -38.5t-31.5 -27t-46 -10q-20 0 -39.5 5.5t-37.5 12t-35.5 12t-34.5 5.5q-19 0 -30 -12.5t-15 -29.5h-63q4 24 12.5 46t22.5 39t33.5 27t46.5 10q20 0 39.5 -6
t37.5 -12.5t34 -12.5t28 -6q18 0 30.5 12.5t16.5 30.5h65z" />
    <glyph glyph-name="Ograve" unicode="&#xd2;" horiz-adv-x="556" 
d="M188 214q0 -60 24 -81t66 -21t66 21t24 81v294q0 60 -24 81t-66 21t-66 -21t-24 -81v-294zM50 490q0 67 17 113t47 74.5t72 41.5t92 13t92 -13t72 -41.5t47 -74.5t17 -113v-258q0 -67 -17 -113t-47 -74.5t-72 -41.5t-92 -13t-92 13t-72 41.5t-47 74.5t-17 113v258z
M270 909l93 -146h-101l-147 146h155z" />
    <glyph glyph-name="Oacute" unicode="&#xd3;" horiz-adv-x="556" 
d="M188 214q0 -60 24 -81t66 -21t66 21t24 81v294q0 60 -24 81t-66 21t-66 -21t-24 -81v-294zM50 490q0 67 17 113t47 74.5t72 41.5t92 13t92 -13t72 -41.5t47 -74.5t17 -113v-258q0 -67 -17 -113t-47 -74.5t-72 -41.5t-92 -13t-92 13t-72 41.5t-47 74.5t-17 113v258z
M441 909l-147 -146h-101l93 146h155z" />
    <glyph glyph-name="Ocircumflex" unicode="&#xd4;" horiz-adv-x="556" 
d="M188 214q0 -60 24 -81t66 -21t66 21t24 81v294q0 60 -24 81t-66 21t-66 -21t-24 -81v-294zM50 490q0 67 17 113t47 74.5t72 41.5t92 13t92 -13t72 -41.5t47 -74.5t17 -113v-258q0 -67 -17 -113t-47 -74.5t-72 -41.5t-92 -13t-92 13t-72 41.5t-47 74.5t-17 113v258z
M341 909l114 -146h-113l-64 82l-64 -82h-113l114 146h126z" />
    <glyph glyph-name="Otilde" unicode="&#xd5;" horiz-adv-x="556" 
d="M188 214q0 -60 24 -81t66 -21t66 21t24 81v294q0 60 -24 81t-66 21t-66 -21t-24 -81v-294zM50 490q0 67 17 113t47 74.5t72 41.5t92 13t92 -13t72 -41.5t47 -74.5t17 -113v-258q0 -67 -17 -113t-47 -74.5t-72 -41.5t-92 -13t-92 13t-72 41.5t-47 74.5t-17 113v258z
M461 897q-5 -24 -13 -45.5t-20.5 -38.5t-31.5 -27t-46 -10q-20 0 -39.5 5.5t-37.5 12t-35.5 12t-34.5 5.5q-19 0 -30 -12.5t-15 -29.5h-63q4 24 12.5 46t22.5 39t33.5 27t46.5 10q20 0 39.5 -6t37.5 -12.5t34 -12.5t28 -6q18 0 30.5 12.5t16.5 30.5h65z" />
    <glyph glyph-name="Odieresis" unicode="&#xd6;" horiz-adv-x="556" 
d="M188 214q0 -60 24 -81t66 -21t66 21t24 81v294q0 60 -24 81t-66 21t-66 -21t-24 -81v-294zM50 490q0 67 17 113t47 74.5t72 41.5t92 13t92 -13t72 -41.5t47 -74.5t17 -113v-258q0 -67 -17 -113t-47 -74.5t-72 -41.5t-92 -13t-92 13t-72 41.5t-47 74.5t-17 113v258z
M433 885v-114h-120v114h120zM243 885v-114h-120v114h120z" />
    <glyph glyph-name="multiply" unicode="&#xd7;" horiz-adv-x="600" 
d="M28 459l87 85l185 -185l186 185l86 -85l-186 -187l186 -186l-86 -86l-186 186l-185 -186l-87 86l186 186v1z" />
    <glyph glyph-name="Oslash" unicode="&#xd8;" horiz-adv-x="556" 
d="M212 134q11 -12 28 -17t38 -5q42 0 66 21t24 81v219h-2zM352 578q-11 18 -30 25t-44 7q-42 0 -66 -21t-24 -81v-246h2zM550 770l-73 -140q29 -55 29 -140v-258q0 -67 -17 -113t-47 -74.5t-72 -41.5t-92 -13q-34 0 -64 5.5t-56 19.5l-48 -93h-104l81 156
q-18 28 -27.5 65.5t-9.5 88.5v258q0 67 17 113t47 74.5t72 41.5t92 13q38 0 71 -7t61 -23l36 68h104z" />
    <glyph glyph-name="Ugrave" unicode="&#xd9;" horiz-adv-x="611" 
d="M208 722v-505q0 -52 23 -78.5t74 -26.5q98 0 98 105v505h138v-506q0 -60 -17 -102.5t-48 -70t-74.5 -40.5t-96.5 -13t-96.5 13t-74.5 40.5t-47.5 70t-16.5 102.5v506h138zM298 909l93 -146h-101l-147 146h155z" />
    <glyph glyph-name="Uacute" unicode="&#xda;" horiz-adv-x="611" 
d="M208 722v-505q0 -52 23 -78.5t74 -26.5q98 0 98 105v505h138v-506q0 -60 -17 -102.5t-48 -70t-74.5 -40.5t-96.5 -13t-96.5 13t-74.5 40.5t-47.5 70t-16.5 102.5v506h138zM469 909l-147 -146h-101l93 146h155z" />
    <glyph glyph-name="Ucircumflex" unicode="&#xdb;" horiz-adv-x="611" 
d="M208 722v-505q0 -52 23 -78.5t74 -26.5q98 0 98 105v505h138v-506q0 -60 -17 -102.5t-48 -70t-74.5 -40.5t-96.5 -13t-96.5 13t-74.5 40.5t-47.5 70t-16.5 102.5v506h138zM369 909l114 -146h-113l-64 82l-64 -82h-113l114 146h126z" />
    <glyph glyph-name="Udieresis" unicode="&#xdc;" horiz-adv-x="611" 
d="M208 722v-505q0 -52 23 -78.5t74 -26.5q98 0 98 105v505h138v-506q0 -60 -17 -102.5t-48 -70t-74.5 -40.5t-96.5 -13t-96.5 13t-74.5 40.5t-47.5 70t-16.5 102.5v506h138zM461 885v-114h-120v114h120zM271 885v-114h-120v114h120z" />
    <glyph glyph-name="Yacute" unicode="&#xdd;" horiz-adv-x="556" 
d="M280 431l117 291h147l-197 -430v-292h-138v292l-197 430h147zM441 909l-147 -146h-101l93 146h155z" />
    <glyph glyph-name="Thorn" unicode="&#xde;" horiz-adv-x="556" 
d="M208 272h74q102 0 102 102t-102 102h-74v-204zM70 0v722h138v-132h61q128 0 190.5 -56.5t62.5 -159.5t-62.5 -159.5t-190.5 -56.5h-61v-158h-138z" />
    <glyph glyph-name="germandbls" unicode="&#xdf;" 
d="M60 0v523q0 44 9 80.5t30.5 63t58 41t91.5 14.5q87 0 133 -51.5t46 -149.5q0 -36 -16 -73t-49 -55q55 -29 74.5 -77.5t19.5 -123.5q0 -100 -42 -151t-106 -51q-39 0 -73 15v114q18 -9 40 -9q29 0 42 23t13 76q0 28 -3.5 51.5t-14 39.5t-28.5 25t-48 9v102q34 2 52.5 24.5
t18.5 63.5q0 38 -14.5 63t-51.5 25q-29 0 -42.5 -18t-13.5 -41v-553h-126z" />
    <glyph glyph-name="agrave" unicode="&#xe0;" 
d="M309 266q-28 -10 -55 -22.5t-48.5 -28.5t-34.5 -34.5t-13 -39.5q0 -27 15 -42t41 -15q29 0 50.5 13.5t44.5 36.5v132zM48 385q3 45 21 77.5t45.5 52.5t62.5 29.5t73 9.5q50 0 85.5 -12t57.5 -34t32 -52.5t10 -66.5v-345q0 -11 2 -22t5 -22h-126q-2 11 -4 23.5t-5 29.5
q-28 -28 -65 -45.5t-85 -17.5q-57 0 -91 32t-34 98q0 47 21 82t58.5 61t88 46t109.5 38v40q0 35 -19 50t-46 15q-29 0 -49.5 -19t-20.5 -48h-126zM242 756l93 -146h-101l-147 146h155z" />
    <glyph glyph-name="aacute" unicode="&#xe1;" 
d="M309 266q-28 -10 -55 -22.5t-48.5 -28.5t-34.5 -34.5t-13 -39.5q0 -27 15 -42t41 -15q29 0 50.5 13.5t44.5 36.5v132zM48 385q3 45 21 77.5t45.5 52.5t62.5 29.5t73 9.5q50 0 85.5 -12t57.5 -34t32 -52.5t10 -66.5v-345q0 -11 2 -22t5 -22h-126q-2 11 -4 23.5t-5 29.5
q-28 -28 -65 -45.5t-85 -17.5q-57 0 -91 32t-34 98q0 47 21 82t58.5 61t88 46t109.5 38v40q0 35 -19 50t-46 15q-29 0 -49.5 -19t-20.5 -48h-126zM413 756l-147 -146h-101l93 146h155z" />
    <glyph glyph-name="acircumflex" unicode="&#xe2;" 
d="M309 266q-28 -10 -55 -22.5t-48.5 -28.5t-34.5 -34.5t-13 -39.5q0 -27 15 -42t41 -15q29 0 50.5 13.5t44.5 36.5v132zM48 385q3 45 21 77.5t45.5 52.5t62.5 29.5t73 9.5q50 0 85.5 -12t57.5 -34t32 -52.5t10 -66.5v-345q0 -11 2 -22t5 -22h-126q-2 11 -4 23.5t-5 29.5
q-28 -28 -65 -45.5t-85 -17.5q-57 0 -91 32t-34 98q0 47 21 82t58.5 61t88 46t109.5 38v40q0 35 -19 50t-46 15q-29 0 -49.5 -19t-20.5 -48h-126zM313 756l114 -146h-113l-64 82l-64 -82h-113l114 146h126z" />
    <glyph glyph-name="atilde" unicode="&#xe3;" 
d="M309 266q-28 -10 -55 -22.5t-48.5 -28.5t-34.5 -34.5t-13 -39.5q0 -27 15 -42t41 -15q29 0 50.5 13.5t44.5 36.5v132zM48 385q3 45 21 77.5t45.5 52.5t62.5 29.5t73 9.5q50 0 85.5 -12t57.5 -34t32 -52.5t10 -66.5v-345q0 -11 2 -22t5 -22h-126q-2 11 -4 23.5t-5 29.5
q-28 -28 -65 -45.5t-85 -17.5q-57 0 -91 32t-34 98q0 47 21 82t58.5 61t88 46t109.5 38v40q0 35 -19 50t-46 15q-29 0 -49.5 -19t-20.5 -48h-126zM433 744q-5 -24 -13 -45.5t-20.5 -38.5t-31.5 -27t-46 -10q-20 0 -39.5 5.5t-37.5 12t-35.5 12t-34.5 5.5q-19 0 -30 -12.5
t-15 -29.5h-63q4 24 12.5 46t22.5 39t33.5 27t46.5 10q20 0 39.5 -6t37.5 -12.5t34 -12.5t28 -6q18 0 30.5 12.5t16.5 30.5h65z" />
    <glyph glyph-name="adieresis" unicode="&#xe4;" 
d="M309 266q-28 -10 -55 -22.5t-48.5 -28.5t-34.5 -34.5t-13 -39.5q0 -27 15 -42t41 -15q29 0 50.5 13.5t44.5 36.5v132zM48 385q3 45 21 77.5t45.5 52.5t62.5 29.5t73 9.5q50 0 85.5 -12t57.5 -34t32 -52.5t10 -66.5v-345q0 -11 2 -22t5 -22h-126q-2 11 -4 23.5t-5 29.5
q-28 -28 -65 -45.5t-85 -17.5q-57 0 -91 32t-34 98q0 47 21 82t58.5 61t88 46t109.5 38v40q0 35 -19 50t-46 15q-29 0 -49.5 -19t-20.5 -48h-126zM405 732v-114h-120v114h120zM215 732v-114h-120v114h120z" />
    <glyph glyph-name="aring" unicode="&#xe5;" 
d="M309 266q-28 -10 -55 -22.5t-48.5 -28.5t-34.5 -34.5t-13 -39.5q0 -27 15 -42t41 -15q29 0 50.5 13.5t44.5 36.5v132zM48 385q3 45 21 77.5t45.5 52.5t62.5 29.5t73 9.5q50 0 85.5 -12t57.5 -34t32 -52.5t10 -66.5v-345q0 -11 2 -22t5 -22h-126q-2 11 -4 23.5t-5 29.5
q-28 -28 -65 -45.5t-85 -17.5q-57 0 -91 32t-34 98q0 47 21 82t58.5 61t88 46t109.5 38v40q0 35 -19 50t-46 15q-29 0 -49.5 -19t-20.5 -48h-126zM249 764q-23 0 -37.5 -15.5t-14.5 -37.5q0 -23 14.5 -38t37.5 -15q22 0 38 15t16 38q0 22 -16 37.5t-38 15.5zM249 604
q-22 0 -41.5 8.5t-33.5 23t-22.5 34t-8.5 41.5t8.5 41.5t22.5 34t33.5 23t41.5 8.5t41.5 -8.5t34.5 -23t23.5 -34t8.5 -41.5t-8.5 -41.5t-23.5 -34t-34.5 -23t-41.5 -8.5z" />
    <glyph glyph-name="ae" unicode="&#xe6;" horiz-adv-x="778" 
d="M590 344v30q0 36 -18 57t-56 21t-56 -21t-18 -57v-30h148zM316 266q-26 -10 -51.5 -22.5t-46 -28.5t-33.5 -34.5t-13 -39.5q0 -27 15 -42t41 -15q29 0 50 13.5t38 36.5v132zM442 242v-72q0 -41 21 -59.5t53 -18.5q40 0 57 22t17 54h126q-5 -85 -54.5 -131.5t-145.5 -46.5
q-34 0 -61 7.5t-47.5 18t-34.5 23t-22 21.5q-32 -24 -57 -38t-46 -21t-40 -9t-37 -2q-57 0 -91 32t-34 98q0 47 21 82t57.5 61t86 46t105.5 38v40q0 35 -15.5 50t-42.5 15q-29 0 -49.5 -19t-20.5 -48h-126q3 45 20.5 77.5t44 52.5t58 29.5t63.5 9.5q48 0 84.5 -16.5
t59.5 -45.5q24 27 58 44.5t76 17.5q40 0 75 -13.5t60.5 -37.5t40 -58t14.5 -76v-127h-274z" />
    <glyph glyph-name="ccedilla" unicode="&#xe7;" 
d="M132 -161q18 -6 37 -11.5t38 -5.5q18 0 37 8.5t19 30.5q0 17 -12 27t-29 10q-12 0 -23 -2.5t-22 -5.5l-21 20l54 83q-77 9 -118.5 57.5t-41.5 145.5v152q0 108 52.5 157t147.5 49q93 0 145 -47t54 -151h-125v24q0 32 -20.5 48t-53.5 16t-53.5 -16t-20.5 -48v-216
q0 -32 20.5 -48t53.5 -16t53.5 16t20.5 48v34h126v-2q0 -105 -50 -154t-139 -52l-35 -51l2 -2q7 5 15 6t16 1q17 0 33 -5.5t29 -15.5t20.5 -24.5t7.5 -32.5q0 -26 -11.5 -43.5t-30 -29t-41 -16.5t-44.5 -5q-29 0 -56 7t-53 18z" />
    <glyph glyph-name="egrave" unicode="&#xe8;" 
d="M324 344v30q0 36 -18 57t-56 21t-56 -21t-18 -57v-30h148zM176 242v-72q0 -41 21 -59.5t53 -18.5q40 0 57 22t17 54h126q-5 -85 -54.5 -131.5t-145.5 -46.5q-45 0 -82 13.5t-63 38.5t-40.5 60.5t-14.5 80.5v178q0 45 14.5 80.5t40.5 60.5t63 38.5t82 13.5
q44 0 80.5 -13.5t63 -37.5t41.5 -58t15 -76v-127h-274zM242 756l93 -146h-101l-147 146h155z" />
    <glyph glyph-name="eacute" unicode="&#xe9;" 
d="M324 344v30q0 36 -18 57t-56 21t-56 -21t-18 -57v-30h148zM176 242v-72q0 -41 21 -59.5t53 -18.5q40 0 57 22t17 54h126q-5 -85 -54.5 -131.5t-145.5 -46.5q-45 0 -82 13.5t-63 38.5t-40.5 60.5t-14.5 80.5v178q0 45 14.5 80.5t40.5 60.5t63 38.5t82 13.5
q44 0 80.5 -13.5t63 -37.5t41.5 -58t15 -76v-127h-274zM413 756l-147 -146h-101l93 146h155z" />
    <glyph glyph-name="ecircumflex" unicode="&#xea;" 
d="M324 344v30q0 36 -18 57t-56 21t-56 -21t-18 -57v-30h148zM176 242v-72q0 -41 21 -59.5t53 -18.5q40 0 57 22t17 54h126q-5 -85 -54.5 -131.5t-145.5 -46.5q-45 0 -82 13.5t-63 38.5t-40.5 60.5t-14.5 80.5v178q0 45 14.5 80.5t40.5 60.5t63 38.5t82 13.5
q44 0 80.5 -13.5t63 -37.5t41.5 -58t15 -76v-127h-274zM313 756l114 -146h-113l-64 82l-64 -82h-113l114 146h126z" />
    <glyph glyph-name="edieresis" unicode="&#xeb;" 
d="M324 344v30q0 36 -18 57t-56 21t-56 -21t-18 -57v-30h148zM176 242v-72q0 -41 21 -59.5t53 -18.5q40 0 57 22t17 54h126q-5 -85 -54.5 -131.5t-145.5 -46.5q-45 0 -82 13.5t-63 38.5t-40.5 60.5t-14.5 80.5v178q0 45 14.5 80.5t40.5 60.5t63 38.5t82 13.5
q44 0 80.5 -13.5t63 -37.5t41.5 -58t15 -76v-127h-274zM405 732v-114h-120v114h120zM215 732v-114h-120v114h120z" />
    <glyph glyph-name="igrave" unicode="&#xec;" horiz-adv-x="278" 
d="M76 0v544h126v-544h-126zM131 756l93 -146h-101l-147 146h155z" />
    <glyph glyph-name="iacute" unicode="&#xed;" horiz-adv-x="278" 
d="M76 0v544h126v-544h-126zM302 756l-147 -146h-101l93 146h155z" />
    <glyph glyph-name="icircumflex" unicode="&#xee;" horiz-adv-x="278" 
d="M76 0v544h126v-544h-126zM202 756l114 -146h-113l-64 82l-64 -82h-113l114 146h126z" />
    <glyph glyph-name="idieresis" unicode="&#xef;" horiz-adv-x="278" 
d="M76 0v544h126v-544h-126zM294 732v-114h-120v114h120zM104 732v-114h-120v114h120z" />
    <glyph glyph-name="eth" unicode="&#xf0;" 
d="M176 160q0 -29 20.5 -44.5t53.5 -15.5t53.5 15.5t20.5 44.5v190q0 30 -20.5 45t-53.5 15t-53.5 -15t-20.5 -45v-190zM294 722l16 -18t16 -19l108 37l30 -74l-91 -32q77 -131 77 -290v-143q0 -102 -52.5 -147.5t-147.5 -45.5t-147.5 45.5t-52.5 147.5v143q0 102 52.5 148
t147.5 46q11 0 20 -0.5t23 -3.5q-4 17 -10.5 32.5t-14.5 31.5l-110 -38l-30 74l95 33q-11 15 -23 29.5t-24 29.5z" />
    <glyph glyph-name="ntilde" unicode="&#xf1;" 
d="M60 0v544h122v-62q35 30 68.5 51t72.5 21q58 0 87.5 -32t29.5 -108v-414h-126v400q0 27 -10 43.5t-36 16.5q-20 0 -41 -15.5t-41 -33.5v-411h-126zM433 744q-5 -24 -13 -45.5t-20.5 -38.5t-31.5 -27t-46 -10q-20 0 -39.5 5.5t-37.5 12t-35.5 12t-34.5 5.5
q-19 0 -30 -12.5t-15 -29.5h-63q4 24 12.5 46t22.5 39t33.5 27t46.5 10q20 0 39.5 -6t37.5 -12.5t34 -12.5t28 -6q18 0 30.5 12.5t16.5 30.5h65z" />
    <glyph glyph-name="ograve" unicode="&#xf2;" 
d="M176 164q0 -32 20.5 -48t53.5 -16t53.5 16t20.5 48v216q0 32 -20.5 48t-53.5 16t-53.5 -16t-20.5 -48v-216zM50 348q0 108 52.5 157t147.5 49q94 0 147 -49t53 -157v-152q0 -108 -53 -157t-147 -49q-95 0 -147.5 49t-52.5 157v152zM242 756l93 -146h-101l-147 146h155z
" />
    <glyph glyph-name="oacute" unicode="&#xf3;" 
d="M176 164q0 -32 20.5 -48t53.5 -16t53.5 16t20.5 48v216q0 32 -20.5 48t-53.5 16t-53.5 -16t-20.5 -48v-216zM50 348q0 108 52.5 157t147.5 49q94 0 147 -49t53 -157v-152q0 -108 -53 -157t-147 -49q-95 0 -147.5 49t-52.5 157v152zM413 756l-147 -146h-101l93 146h155z
" />
    <glyph glyph-name="ocircumflex" unicode="&#xf4;" 
d="M176 164q0 -32 20.5 -48t53.5 -16t53.5 16t20.5 48v216q0 32 -20.5 48t-53.5 16t-53.5 -16t-20.5 -48v-216zM50 348q0 108 52.5 157t147.5 49q94 0 147 -49t53 -157v-152q0 -108 -53 -157t-147 -49q-95 0 -147.5 49t-52.5 157v152zM313 756l114 -146h-113l-64 82l-64 -82
h-113l114 146h126z" />
    <glyph glyph-name="otilde" unicode="&#xf5;" 
d="M176 164q0 -32 20.5 -48t53.5 -16t53.5 16t20.5 48v216q0 32 -20.5 48t-53.5 16t-53.5 -16t-20.5 -48v-216zM50 348q0 108 52.5 157t147.5 49q94 0 147 -49t53 -157v-152q0 -108 -53 -157t-147 -49q-95 0 -147.5 49t-52.5 157v152zM433 744q-5 -24 -13 -45.5t-20.5 -38.5
t-31.5 -27t-46 -10q-20 0 -39.5 5.5t-37.5 12t-35.5 12t-34.5 5.5q-19 0 -30 -12.5t-15 -29.5h-63q4 24 12.5 46t22.5 39t33.5 27t46.5 10q20 0 39.5 -6t37.5 -12.5t34 -12.5t28 -6q18 0 30.5 12.5t16.5 30.5h65z" />
    <glyph glyph-name="odieresis" unicode="&#xf6;" 
d="M176 164q0 -32 20.5 -48t53.5 -16t53.5 16t20.5 48v216q0 32 -20.5 48t-53.5 16t-53.5 -16t-20.5 -48v-216zM50 348q0 108 52.5 157t147.5 49q94 0 147 -49t53 -157v-152q0 -108 -53 -157t-147 -49q-95 0 -147.5 49t-52.5 157v152zM405 732v-114h-120v114h120zM215 732
v-114h-120v114h120z" />
    <glyph glyph-name="divide" unicode="&#xf7;" horiz-adv-x="600" 
d="M204 495q0 19 7.5 36.5t21 30.5t30.5 20.5t37 7.5q19 0 36 -7.5t30 -20.5t20.5 -30.5t7.5 -36.5q0 -18 -7.5 -35t-20.5 -30.5t-30 -21.5t-35 -8q-20 0 -37.5 7.5t-31 20.5t-21 30t-7.5 37zM204 49q0 20 7.5 37.5t21 30t30.5 20t37 7.5q19 0 36 -7.5t30 -20.5t20.5 -30.5
t7.5 -36.5q0 -18 -7.5 -35t-20.5 -30.5t-30 -21.5t-35 -8q-20 0 -37.5 7.5t-31 20.5t-21 30.5t-7.5 36.5zM28 211v122h544v-122h-544z" />
    <glyph glyph-name="oslash" unicode="&#xf8;" 
d="M211 108q16 -8 39 -8q33 0 53.5 16t20.5 48v153h-2zM296 432q-18 12 -46 12q-33 0 -53.5 -16t-20.5 -48v-171h2zM93 -112h-89l88 164q-42 49 -42 144v152q0 108 52.5 157t147.5 49q60 0 102 -19l51 95h89l-78 -146q36 -48 36 -136v-152q0 -108 -53 -157t-147 -49
q-56 0 -94 16z" />
    <glyph glyph-name="ugrave" unicode="&#xf9;" 
d="M440 544v-544h-122v62q-35 -30 -68.5 -51t-72.5 -21q-58 0 -87.5 32t-29.5 108v414h126v-400q0 -27 10 -43.5t36 -16.5q20 0 41 15.5t41 33.5v411h126zM233 756l93 -146h-101l-147 146h155z" />
    <glyph glyph-name="uacute" unicode="&#xfa;" 
d="M440 544v-544h-122v62q-35 -30 -68.5 -51t-72.5 -21q-58 0 -87.5 32t-29.5 108v414h126v-400q0 -27 10 -43.5t36 -16.5q20 0 41 15.5t41 33.5v411h126zM404 756l-147 -146h-101l93 146h155z" />
    <glyph glyph-name="ucircumflex" unicode="&#xfb;" 
d="M440 544v-544h-122v62q-35 -30 -68.5 -51t-72.5 -21q-58 0 -87.5 32t-29.5 108v414h126v-400q0 -27 10 -43.5t36 -16.5q20 0 41 15.5t41 33.5v411h126zM304 756l114 -146h-113l-64 82l-64 -82h-113l114 146h126z" />
    <glyph glyph-name="udieresis" unicode="&#xfc;" 
d="M440 544v-544h-122v62q-35 -30 -68.5 -51t-72.5 -21q-58 0 -87.5 32t-29.5 108v414h126v-400q0 -27 10 -43.5t36 -16.5q20 0 41 15.5t41 33.5v411h126zM396 732v-114h-120v114h120zM206 732v-114h-120v114h120z" />
    <glyph glyph-name="yacute" unicode="&#xfd;" horiz-adv-x="444" 
d="M32 -80q9 -2 18 -2h19q21 0 37.5 8t28.5 19t18.5 23.5t6.5 21.5q0 24 -6.5 52t-16.5 63l-126 439h128l85 -360h2l79 360h128l-145 -542q-15 -55 -32.5 -92.5t-42.5 -60t-59.5 -32t-81.5 -9.5q-9 0 -19 0.5t-21 1.5v110zM385 756l-147 -146h-101l93 146h155z" />
    <glyph glyph-name="thorn" unicode="&#xfe;" 
d="M186 123q36 -39 76 -39q13 0 24 5t19.5 19.5t13.5 39.5t5 66v116q0 40 -5 65.5t-13.5 40t-19.5 19.5t-24 5q-40 0 -76 -39v-298zM184 722v-234h2q5 9 17.5 20.5t29.5 21.5t37.5 17t41.5 7q74 0 106 -55t32 -161v-132q0 -106 -32 -161t-106 -55q-26 0 -53.5 13.5
t-72.5 46.5v-242h-126v914h124z" />
    <glyph glyph-name="ydieresis" unicode="&#xff;" horiz-adv-x="444" 
d="M32 -80q9 -2 18 -2h19q21 0 37.5 8t28.5 19t18.5 23.5t6.5 21.5q0 24 -6.5 52t-16.5 63l-126 439h128l85 -360h2l79 360h128l-145 -542q-15 -55 -32.5 -92.5t-42.5 -60t-59.5 -32t-81.5 -9.5q-9 0 -19 0.5t-21 1.5v110zM377 732v-114h-120v114h120zM187 732v-114h-120
v114h120z" />
    <glyph glyph-name="Amacron" unicode="&#x100;" horiz-adv-x="556" 
d="M210 274h137l-67 292h-2zM13 0l179 722h177l174 -722h-132l-35 152h-191l-39 -152h-133zM106 793v74h348v-74h-348z" />
    <glyph glyph-name="amacron" unicode="&#x101;" 
d="M309 266q-28 -10 -55 -22.5t-48.5 -28.5t-34.5 -34.5t-13 -39.5q0 -27 15 -42t41 -15q29 0 50.5 13.5t44.5 36.5v132zM48 385q3 45 21 77.5t45.5 52.5t62.5 29.5t73 9.5q50 0 85.5 -12t57.5 -34t32 -52.5t10 -66.5v-345q0 -11 2 -22t5 -22h-126q-2 11 -4 23.5t-5 29.5
q-28 -28 -65 -45.5t-85 -17.5q-57 0 -91 32t-34 98q0 47 21 82t58.5 61t88 46t109.5 38v40q0 35 -19 50t-46 15q-29 0 -49.5 -19t-20.5 -48h-126zM75 640v74h348v-74h-348z" />
    <glyph glyph-name="Abreve" unicode="&#x102;" horiz-adv-x="556" 
d="M210 274h137l-67 292h-2zM13 0l179 722h177l174 -722h-132l-35 152h-191l-39 -152h-133zM448 907q-10 -75 -55 -110.5t-120 -35.5q-72 0 -114 36.5t-47 109.5h64q2 -21 12 -34.5t24 -21.5t32 -11t36 -3q40 0 67 14t35 56h66z" />
    <glyph glyph-name="abreve" unicode="&#x103;" 
d="M309 266q-28 -10 -55 -22.5t-48.5 -28.5t-34.5 -34.5t-13 -39.5q0 -27 15 -42t41 -15q29 0 50.5 13.5t44.5 36.5v132zM48 385q3 45 21 77.5t45.5 52.5t62.5 29.5t73 9.5q50 0 85.5 -12t57.5 -34t32 -52.5t10 -66.5v-345q0 -11 2 -22t5 -22h-126q-2 11 -4 23.5t-5 29.5
q-28 -28 -65 -45.5t-85 -17.5q-57 0 -91 32t-34 98q0 47 21 82t58.5 61t88 46t109.5 38v40q0 35 -19 50t-46 15q-29 0 -49.5 -19t-20.5 -48h-126zM417 754q-10 -75 -55 -110.5t-120 -35.5q-72 0 -114 36.5t-47 109.5h64q2 -21 12 -34.5t24 -21.5t32 -11t36 -3q40 0 67 14
t35 56h66z" />
    <glyph glyph-name="Aogonek" unicode="&#x104;" horiz-adv-x="556" 
d="M13 0l179 722h177l174 -722h-39q-10 -4 -22 -10q-24 -11 -46 -26t-36.5 -35t-14.5 -45t15.5 -38.5t37.5 -13.5q24 0 50 15t46 28l20 -34q-34 -23 -71.5 -41t-79.5 -18q-43 0 -73.5 23t-30.5 68q0 39 24.5 65.5t59.5 43.5q23 10 48 18h-20l-35 152h-191l-39 -152h-133z
M210 274h137l-67 292h-2z" />
    <glyph glyph-name="aogonek" unicode="&#x105;" 
d="M48 385q3 45 21 77.5t45.5 52.5t62.5 29.5t73 9.5q50 0 85.5 -12t57.5 -34t32 -52.5t10 -66.5v-345q0 -11 2 -22t5 -22l-45 -3l-14 -7q-24 -11 -46 -26t-36.5 -35t-14.5 -45t15.5 -38.5t37.5 -13.5q24 0 50 15t46 28l20 -34q-34 -23 -71.5 -41t-79.5 -18q-43 0 -73.5 23
t-30.5 68q0 39 24.5 65.5t59.5 43.5q19 8 38 15q-5 16 -7 26q-2 13 -4 31q-32 -29 -69 -46.5t-85 -17.5q-57 0 -91 32t-34 98q0 47 21 82t58.5 61t88 46t109.5 38v40q0 35 -19 50t-46 15q-29 0 -49.5 -19t-20.5 -48h-126zM309 266q-28 -10 -55 -22.5t-48.5 -28.5
t-34.5 -34.5t-13 -39.5q0 -27 15 -42t41 -15q29 0 50.5 13.5t44.5 36.5v132z" />
    <glyph glyph-name="Cacute" unicode="&#x106;" horiz-adv-x="556" 
d="M188 214q0 -60 24 -81t66 -21t66 21t24 81v48h138v-30q0 -67 -17 -113t-47 -74.5t-72 -41.5t-92 -13t-92 13t-72 41.5t-47 74.5t-17 113v258q0 67 17 113t47 74.5t72 41.5t92 13t92 -13t72 -41.5t47 -74.5t17 -113v-2h-138v20q0 60 -24 81t-66 21t-66 -21t-24 -81v-294z
M443 909l-147 -146h-101l93 146h155z" />
    <glyph glyph-name="cacute" unicode="&#x107;" 
d="M324 356v24q0 32 -20.5 48t-53.5 16t-53.5 -16t-20.5 -48v-216q0 -32 20.5 -48t53.5 -16t53.5 16t20.5 48v34h126v-2q0 -108 -53 -157t-147 -49q-95 0 -147.5 49t-52.5 157v152q0 108 52.5 157t147.5 49q93 0 145 -47t54 -151h-125zM415 756l-147 -146h-101l93 146h155z
" />
    <glyph glyph-name="Ccircumflex" unicode="&#x108;" horiz-adv-x="556" 
d="M188 214q0 -60 24 -81t66 -21t66 21t24 81v48h138v-30q0 -67 -17 -113t-47 -74.5t-72 -41.5t-92 -13t-92 13t-72 41.5t-47 74.5t-17 113v258q0 67 17 113t47 74.5t72 41.5t92 13t92 -13t72 -41.5t47 -74.5t17 -113v-2h-138v20q0 60 -24 81t-66 21t-66 -21t-24 -81v-294z
M341 909l114 -146h-113l-64 82l-64 -82h-113l114 146h126z" />
    <glyph glyph-name="ccircumflex" unicode="&#x109;" 
d="M324 356v24q0 32 -20.5 48t-53.5 16t-53.5 -16t-20.5 -48v-216q0 -32 20.5 -48t53.5 -16t53.5 16t20.5 48v34h126v-2q0 -108 -53 -157t-147 -49q-95 0 -147.5 49t-52.5 157v152q0 108 52.5 157t147.5 49q93 0 145 -47t54 -151h-125zM312 756l114 -146h-113l-64 82
l-64 -82h-113l114 146h126z" />
    <glyph glyph-name="Cdotaccent" unicode="&#x10a;" horiz-adv-x="556" 
d="M188 214q0 -60 24 -81t66 -21t66 21t24 81v48h138v-30q0 -67 -17 -113t-47 -74.5t-72 -41.5t-92 -13t-92 13t-72 41.5t-47 74.5t-17 113v258q0 67 17 113t47 74.5t72 41.5t92 13t92 -13t72 -41.5t47 -74.5t17 -113v-2h-138v20q0 60 -24 81t-66 21t-66 -21t-24 -81v-294z
M338 885v-114h-120v114h120z" />
    <glyph glyph-name="cdotaccent" unicode="&#x10b;" 
d="M324 356v24q0 32 -20.5 48t-53.5 16t-53.5 -16t-20.5 -48v-216q0 -32 20.5 -48t53.5 -16t53.5 16t20.5 48v34h126v-2q0 -108 -53 -157t-147 -49q-95 0 -147.5 49t-52.5 157v152q0 108 52.5 157t147.5 49q93 0 145 -47t54 -151h-125zM310 732v-114h-120v114h120z" />
    <glyph glyph-name="Ccaron" unicode="&#x10c;" horiz-adv-x="556" 
d="M188 214q0 -60 24 -81t66 -21t66 21t24 81v48h138v-30q0 -67 -17 -113t-47 -74.5t-72 -41.5t-92 -13t-92 13t-72 41.5t-47 74.5t-17 113v258q0 67 17 113t47 74.5t72 41.5t92 13t92 -13t72 -41.5t47 -74.5t17 -113v-2h-138v20q0 60 -24 81t-66 21t-66 -21t-24 -81v-294z
M215 763l-114 146h113l64 -82l64 82h113l-114 -146h-126z" />
    <glyph glyph-name="ccaron" unicode="&#x10d;" 
d="M324 356v24q0 32 -20.5 48t-53.5 16t-53.5 -16t-20.5 -48v-216q0 -32 20.5 -48t53.5 -16t53.5 16t20.5 48v34h126v-2q0 -108 -53 -157t-147 -49q-95 0 -147.5 49t-52.5 157v152q0 108 52.5 157t147.5 49q93 0 145 -47t54 -151h-125zM187 610l-114 146h113l64 -82l64 82
h113l-114 -146h-126z" />
    <glyph glyph-name="Dcaron" unicode="&#x10e;" horiz-adv-x="556" 
d="M200 122h48q57 0 88.5 31.5t31.5 112.5v190q0 77 -27.5 110.5t-92.5 33.5h-48v-478zM62 722h192q59 0 105 -13.5t78 -43.5t49.5 -77.5t19.5 -115.5v-222q-2 -68 -19.5 -115.5t-49.5 -77.5t-78 -43.5t-105 -13.5h-192v722zM192 763l-114 146h113l64 -82l64 82h113
l-114 -146h-126z" />
    <glyph glyph-name="dcaron" unicode="&#x10f;" 
d="M314 421q-36 39 -76 39q-13 0 -24 -5t-19.5 -19.5t-13.5 -40t-5 -65.5v-116q0 -41 5 -66t13.5 -39.5t19.5 -19.5t24 -5q40 0 76 39v298zM324 0v66h-2q-8 -13 -22 -26.5t-32 -24.5t-38.5 -18t-41.5 -7q-74 0 -106 55t-32 161v132q0 106 32 161t106 55q26 0 53.5 -13.5
t72.5 -46.5v228h126v-722h-116zM519 626h-42v96h99v-94l-38 -89h-48z" />
    <glyph glyph-name="Dcroat" unicode="&#x110;" horiz-adv-x="556" 
d="M288 312h-88v-190h48q57 0 88.5 31.5t31.5 112.5v190q0 77 -27.5 110.5t-92.5 33.5h-48v-166h88v-122zM8 434h54v288h192q59 0 105 -13.5t78 -43.5t49.5 -77.5t19.5 -115.5v-222q-2 -68 -19.5 -115.5t-49.5 -77.5t-78 -43.5t-105 -13.5h-192v312h-54v122z" />
    <glyph glyph-name="dcroat" unicode="&#x111;" 
d="M324 0v66h-2q-8 -13 -22 -26.5t-32 -24.5t-38.5 -18t-41.5 -7q-74 0 -106 55t-32 161v122q0 106 32 159t106 53q26 0 53.5 -11.5t72.5 -44.5v102h-110v83h110v53h126v-53h55v-83h-55v-586h-116zM314 411q-36 39 -76 39q-13 0 -24 -5t-19.5 -19.5t-13.5 -40t-5 -65.5v-106
q0 -41 5 -66t13.5 -39.5t19.5 -19.5t24 -5q40 0 76 39v288z" />
    <glyph glyph-name="Emacron" unicode="&#x112;" 
d="M62 0v722h378v-122h-240v-166h183v-122h-183v-190h250v-122h-388zM76 793v74h348v-74h-348z" />
    <glyph glyph-name="emacron" unicode="&#x113;" 
d="M324 344v30q0 36 -18 57t-56 21t-56 -21t-18 -57v-30h148zM176 242v-72q0 -41 21 -59.5t53 -18.5q40 0 57 22t17 54h126q-5 -85 -54.5 -131.5t-145.5 -46.5q-45 0 -82 13.5t-63 38.5t-40.5 60.5t-14.5 80.5v178q0 45 14.5 80.5t40.5 60.5t63 38.5t82 13.5
q44 0 80.5 -13.5t63 -37.5t41.5 -58t15 -76v-127h-274zM76 640v74h348v-74h-348z" />
    <glyph glyph-name="Ebreve" unicode="&#x114;" 
d="M62 0v722h378v-122h-240v-166h183v-122h-183v-190h250v-122h-388zM420 907q-10 -75 -55 -110.5t-120 -35.5q-72 0 -114 36.5t-47 109.5h64q2 -21 12 -34.5t24 -21.5t32 -11t36 -3q40 0 67 14t35 56h66z" />
    <glyph glyph-name="ebreve" unicode="&#x115;" 
d="M324 344v30q0 36 -18 57t-56 21t-56 -21t-18 -57v-30h148zM176 242v-72q0 -41 21 -59.5t53 -18.5q40 0 57 22t17 54h126q-5 -85 -54.5 -131.5t-145.5 -46.5q-45 0 -82 13.5t-63 38.5t-40.5 60.5t-14.5 80.5v178q0 45 14.5 80.5t40.5 60.5t63 38.5t82 13.5
q44 0 80.5 -13.5t63 -37.5t41.5 -58t15 -76v-127h-274zM418 754q-10 -75 -55 -110.5t-120 -35.5q-72 0 -114 36.5t-47 109.5h64q2 -21 12 -34.5t24 -21.5t32 -11t36 -3q40 0 67 14t35 56h66z" />
    <glyph glyph-name="Edotaccent" unicode="&#x116;" 
d="M62 0v722h378v-122h-240v-166h183v-122h-183v-190h250v-122h-388zM311 885v-114h-120v114h120z" />
    <glyph glyph-name="edotaccent" unicode="&#x117;" 
d="M324 344v30q0 36 -18 57t-56 21t-56 -21t-18 -57v-30h148zM176 242v-72q0 -41 21 -59.5t53 -18.5q40 0 57 22t17 54h126q-5 -85 -54.5 -131.5t-145.5 -46.5q-45 0 -82 13.5t-63 38.5t-40.5 60.5t-14.5 80.5v178q0 45 14.5 80.5t40.5 60.5t63 38.5t82 13.5
q44 0 80.5 -13.5t63 -37.5t41.5 -58t15 -76v-127h-274zM310 732v-114h-120v114h120z" />
    <glyph glyph-name="Eogonek" unicode="&#x118;" 
d="M62 0v722h378v-122h-240v-166h183v-122h-183v-190h250v-122h-42q-10 -4 -22 -10q-24 -11 -46 -26t-36.5 -35t-14.5 -45t15.5 -38.5t37.5 -13.5q24 0 50 15t46 28l20 -34q-34 -23 -71.5 -41t-79.5 -18q-43 0 -73.5 23t-30.5 68q0 39 24.5 65.5t59.5 43.5q23 10 48 18h-273
z" />
    <glyph glyph-name="eogonek" unicode="&#x119;" 
d="M176 242v-72q0 -41 21 -59.5t53 -18.5q40 0 57 22t17 54h126q-5 -85 -55 -132q-24 -23 -60 -34q-23 -15 -44 -34q-22 -19 -36.5 -39t-14.5 -45t15.5 -38.5t37.5 -13.5q24 0 50 15t46 28l20 -34q-34 -23 -71.5 -41t-79.5 -18q-43 0 -73.5 23t-30.5 68q0 39 24.5 65.5
t59.5 47.5l8 4q-43 1 -78 13q-37 14 -63 39t-40.5 60.5t-14.5 80.5v178q0 45 14.5 80.5t40.5 60.5t63 38.5t82 13.5q44 0 80.5 -13.5t63 -37.5t41.5 -58t15 -76v-127h-274zM324 344v30q0 36 -18 57t-56 21t-56 -21t-18 -57v-30h148z" />
    <glyph glyph-name="Ecaron" unicode="&#x11a;" 
d="M62 0v722h378v-122h-240v-166h183v-122h-183v-190h250v-122h-388zM189 763l-114 146h113l64 -82l64 82h113l-114 -146h-126z" />
    <glyph glyph-name="ecaron" unicode="&#x11b;" 
d="M324 344v30q0 36 -18 57t-56 21t-56 -21t-18 -57v-30h148zM176 242v-72q0 -41 21 -59.5t53 -18.5q40 0 57 22t17 54h126q-5 -85 -54.5 -131.5t-145.5 -46.5q-45 0 -82 13.5t-63 38.5t-40.5 60.5t-14.5 80.5v178q0 45 14.5 80.5t40.5 60.5t63 38.5t82 13.5
q44 0 80.5 -13.5t63 -37.5t41.5 -58t15 -76v-127h-274zM187 610l-114 146h113l64 -82l64 82h113l-114 -146h-126z" />
    <glyph glyph-name="Gcircumflex" unicode="&#x11c;" horiz-adv-x="556" 
d="M407 60q-28 -32 -59 -51t-70 -19q-50 0 -92 13t-72 41.5t-47 74.5t-17 113v258q0 67 17 113t47 74.5t72 41.5t92 13q106 0 162 -60.5t60 -184.5h-138q0 70 -23 96.5t-61 26.5q-42 0 -66 -21t-24 -81v-294q0 -60 24 -81t66 -21q39 0 61.5 26.5t22.5 73.5v44h-97v114h235
v-370h-72zM341 909l114 -146h-113l-64 82l-64 -82h-113l114 146h126z" />
    <glyph glyph-name="gcircumflex" unicode="&#x11d;" 
d="M168 -24q-10 -10 -18 -19.5t-8 -24.5q0 -21 29.5 -30.5t85.5 -9.5q45 0 70 11t25 32q0 14 -8.5 20.5t-37.5 8.5zM292 347q0 105 -66 105q-36 0 -51 -27t-15 -91q0 -51 15.5 -76.5t44.5 -25.5q20 0 34 4.5t22.5 17.5t12 35t3.5 58zM478 444q-8 2 -19.5 5t-19.5 3
q-10 0 -20 -4t-23 -8q6 -27 11 -49t5 -47q0 -103 -44 -158.5t-138 -55.5q-14 0 -26 1t-26 6q-5 -8 -13.5 -15t-8.5 -17q0 -17 23.5 -22t58.5 -6t76 -3.5t76 -14.5t58.5 -38.5t23.5 -75.5q0 -35 -17.5 -60.5t-49 -42.5t-76 -25.5t-99.5 -8.5q-101 0 -154.5 26.5t-53.5 72.5
q0 15 7.5 27.5t19 23t25 19t24.5 15.5q-23 14 -37.5 32.5t-14.5 44.5q0 16 7.5 29.5t19 25t24.5 20.5t25 16q-46 30 -64 75t-18 114q0 44 9 81.5t31 65t57.5 43t88.5 15.5q39 0 78.5 -17t63.5 -46q24 30 49.5 46.5t60.5 16.5v-110zM299 756l114 -146h-113l-64 82l-64 -82
h-113l114 146h126z" />
    <glyph glyph-name="Gbreve" unicode="&#x11e;" horiz-adv-x="556" 
d="M407 60q-28 -32 -59 -51t-70 -19q-50 0 -92 13t-72 41.5t-47 74.5t-17 113v258q0 67 17 113t47 74.5t72 41.5t92 13q106 0 162 -60.5t60 -184.5h-138q0 70 -23 96.5t-61 26.5q-42 0 -66 -21t-24 -81v-294q0 -60 24 -81t66 -21q39 0 61.5 26.5t22.5 73.5v44h-97v114h235
v-370h-72zM446 907q-10 -75 -55 -110.5t-120 -35.5q-72 0 -114 36.5t-47 109.5h64q2 -21 12 -34.5t24 -21.5t32 -11t36 -3q40 0 67 14t35 56h66z" />
    <glyph glyph-name="gbreve" unicode="&#x11f;" 
d="M168 -24q-10 -10 -18 -19.5t-8 -24.5q0 -21 29.5 -30.5t85.5 -9.5q45 0 70 11t25 32q0 14 -8.5 20.5t-37.5 8.5zM292 347q0 105 -66 105q-36 0 -51 -27t-15 -91q0 -51 15.5 -76.5t44.5 -25.5q20 0 34 4.5t22.5 17.5t12 35t3.5 58zM478 444q-8 2 -19.5 5t-19.5 3
q-10 0 -20 -4t-23 -8q6 -27 11 -49t5 -47q0 -103 -44 -158.5t-138 -55.5q-14 0 -26 1t-26 6q-5 -8 -13.5 -15t-8.5 -17q0 -17 23.5 -22t58.5 -6t76 -3.5t76 -14.5t58.5 -38.5t23.5 -75.5q0 -35 -17.5 -60.5t-49 -42.5t-76 -25.5t-99.5 -8.5q-101 0 -154.5 26.5t-53.5 72.5
q0 15 7.5 27.5t19 23t25 19t24.5 15.5q-23 14 -37.5 32.5t-14.5 44.5q0 16 7.5 29.5t19 25t24.5 20.5t25 16q-46 30 -64 75t-18 114q0 44 9 81.5t31 65t57.5 43t88.5 15.5q39 0 78.5 -17t63.5 -46q24 30 49.5 46.5t60.5 16.5v-110zM404 754q-10 -75 -55 -110.5t-120 -35.5
q-72 0 -114 36.5t-47 109.5h64q2 -21 12 -34.5t24 -21.5t32 -11t36 -3q40 0 67 14t35 56h66z" />
    <glyph glyph-name="Gdotaccent" unicode="&#x120;" horiz-adv-x="556" 
d="M407 60q-28 -32 -59 -51t-70 -19q-50 0 -92 13t-72 41.5t-47 74.5t-17 113v258q0 67 17 113t47 74.5t72 41.5t92 13q106 0 162 -60.5t60 -184.5h-138q0 70 -23 96.5t-61 26.5q-42 0 -66 -21t-24 -81v-294q0 -60 24 -81t66 -21q39 0 61.5 26.5t22.5 73.5v44h-97v114h235
v-370h-72zM338 885v-114h-120v114h120z" />
    <glyph glyph-name="gdotaccent" unicode="&#x121;" 
d="M168 -24q-10 -10 -18 -19.5t-8 -24.5q0 -21 29.5 -30.5t85.5 -9.5q45 0 70 11t25 32q0 14 -8.5 20.5t-37.5 8.5zM292 347q0 105 -66 105q-36 0 -51 -27t-15 -91q0 -51 15.5 -76.5t44.5 -25.5q20 0 34 4.5t22.5 17.5t12 35t3.5 58zM478 444q-8 2 -19.5 5t-19.5 3
q-10 0 -20 -4t-23 -8q6 -27 11 -49t5 -47q0 -103 -44 -158.5t-138 -55.5q-14 0 -26 1t-26 6q-5 -8 -13.5 -15t-8.5 -17q0 -17 23.5 -22t58.5 -6t76 -3.5t76 -14.5t58.5 -38.5t23.5 -75.5q0 -35 -17.5 -60.5t-49 -42.5t-76 -25.5t-99.5 -8.5q-101 0 -154.5 26.5t-53.5 72.5
q0 15 7.5 27.5t19 23t25 19t24.5 15.5q-23 14 -37.5 32.5t-14.5 44.5q0 16 7.5 29.5t19 25t24.5 20.5t25 16q-46 30 -64 75t-18 114q0 44 9 81.5t31 65t57.5 43t88.5 15.5q39 0 78.5 -17t63.5 -46q24 30 49.5 46.5t60.5 16.5v-110zM296 732v-114h-120v114h120z" />
    <glyph glyph-name="Gcommaaccent" unicode="&#x122;" horiz-adv-x="556" 
d="M407 60q-28 -32 -59 -51t-70 -19q-50 0 -92 13t-72 41.5t-47 74.5t-17 113v258q0 67 17 113t47 74.5t72 41.5t92 13q106 0 162 -60.5t60 -184.5h-138q0 70 -23 96.5t-61 26.5q-42 0 -66 -21t-24 -81v-294q0 -60 24 -81t66 -21q39 0 61.5 26.5t22.5 73.5v44h-97v114h235
v-370h-72zM272 -143h-44v98h102v-96l-38 -87h-51z" />
    <glyph glyph-name="gcommaaccent" unicode="&#x123;" 
d="M168 -24q-10 -10 -18 -19.5t-8 -24.5q0 -21 29.5 -30.5t85.5 -9.5q45 0 70 11t25 32q0 14 -8.5 20.5t-37.5 8.5zM292 347q0 105 -66 105q-36 0 -51 -27t-15 -91q0 -51 15.5 -76.5t44.5 -25.5q20 0 34 4.5t22.5 17.5t12 35t3.5 58zM478 444q-8 2 -19.5 5t-19.5 3
q-10 0 -20 -4t-23 -8q6 -27 11 -49t5 -47q0 -103 -44 -158.5t-138 -55.5q-14 0 -26 1t-26 6q-5 -8 -13.5 -15t-8.5 -17q0 -17 23.5 -22t58.5 -6t76 -3.5t76 -14.5t58.5 -38.5t23.5 -75.5q0 -35 -17.5 -60.5t-49 -42.5t-76 -25.5t-99.5 -8.5q-101 0 -154.5 26.5t-53.5 72.5
q0 15 7.5 27.5t19 23t25 19t24.5 15.5q-23 14 -37.5 32.5t-14.5 44.5q0 16 7.5 29.5t19 25t24.5 20.5t25 16q-46 30 -64 75t-18 114q0 44 9 81.5t31 65t57.5 43t88.5 15.5q39 0 78.5 -17t63.5 -46q24 30 49.5 46.5t60.5 16.5v-110zM240 686h38v-82h-88v80l34 72h44z" />
    <glyph glyph-name="Hcircumflex" unicode="&#x124;" horiz-adv-x="611" 
d="M70 0v722h138v-288h195v288h138v-722h-138v312h-195v-312h-138zM369 909l114 -146h-113l-64 82l-64 -82h-113l114 146h126z" />
    <glyph glyph-name="hcircumflex" unicode="&#x125;" 
d="M60 0v722h126v-240q32 30 65 51t72 21q58 0 87.5 -32t29.5 -108v-414h-126v400q0 27 -10 43.5t-36 16.5q-20 0 -41 -15.5t-41 -33.5v-411h-126zM306 909l114 -146h-113l-64 82l-64 -82h-113l114 146h126z" />
    <glyph glyph-name="Hbar" unicode="&#x126;" horiz-adv-x="611" 
d="M70 0v722h138v-129h195v129h138v-722h-138v262h-195v-262h-138zM208 377h195v123h-195v-123z" />
    <glyph glyph-name="hbar" unicode="&#x127;" 
d="M60 0v586h-54v83h54v53h126v-53h115v-83h-115v-111q32 30 65 51t72 21q58 0 87.5 -32t29.5 -108v-407h-126v393q0 27 -10 43.5t-36 16.5q-20 0 -41 -15.5t-41 -33.5v-404h-126z" />
    <glyph glyph-name="Itilde" unicode="&#x128;" horiz-adv-x="278" 
d="M70 0v722h138v-722h-138zM323 897q-5 -24 -13 -45.5t-20.5 -38.5t-31.5 -27t-46 -10q-20 0 -39.5 5.5t-37.5 12t-35.5 12t-34.5 5.5q-19 0 -30 -12.5t-15 -29.5h-63q4 24 12.5 46t22.5 39t33.5 27t46.5 10q20 0 39.5 -6t37.5 -12.5t34 -12.5t28 -6q18 0 30.5 12.5
t16.5 30.5h65z" />
    <glyph glyph-name="itilde" unicode="&#x129;" horiz-adv-x="278" 
d="M76 0v544h126v-544h-126zM324 744q-5 -24 -13 -45.5t-20.5 -38.5t-31.5 -27t-46 -10q-20 0 -39.5 5.5t-37.5 12t-35.5 12t-34.5 5.5q-19 0 -30 -12.5t-15 -29.5h-63q4 24 12.5 46t22.5 39t33.5 27t46.5 10q20 0 39.5 -6t37.5 -12.5t34 -12.5t28 -6q18 0 30.5 12.5
t16.5 30.5h65z" />
    <glyph glyph-name="Imacron" unicode="&#x12a;" horiz-adv-x="278" 
d="M70 0v722h138v-722h-138zM-35 793v74h348v-74h-348z" />
    <glyph glyph-name="imacron" unicode="&#x12b;" horiz-adv-x="278" 
d="M76 0v544h126v-544h-126zM-33 640v74h348v-74h-348z" />
    <glyph glyph-name="Iogonek" unicode="&#x12e;" horiz-adv-x="278" 
d="M70 0v722h138v-722h-21q-7 -4 -16 -10q-18 -11 -33.5 -26t-28 -35t-12.5 -45t15.5 -38.5t37.5 -13.5q24 0 50 15t46 28l20 -34q-36 -26 -72.5 -42.5t-78.5 -16.5q-43 0 -73 23t-30 68q0 39 21.5 65.5t50.5 43.5q19 10 40 18h-54z" />
    <glyph glyph-name="iogonek" unicode="&#x12f;" horiz-adv-x="278" 
d="M202 544v-544h-15q-7 -4 -16 -10q-18 -11 -33.5 -26t-28 -35t-12.5 -45t15.5 -38.5t37.5 -13.5q24 0 50 15t46 28l20 -34q-36 -26 -72.5 -42.5t-78.5 -16.5q-43 0 -73 23t-30 68q0 39 21.5 65.5t50.5 43.5q19 10 40 18h-48v544h126zM76 638v114h126v-114h-126z" />
    <glyph glyph-name="Idotaccent" unicode="&#x130;" horiz-adv-x="278" 
d="M70 0v722h138v-722h-138zM200 885v-114h-120v114h120z" />
    <glyph glyph-name="dotlessi" unicode="&#x131;" horiz-adv-x="278" 
d="M76 0v544h126v-544h-126z" />
    <glyph glyph-name="Jcircumflex" unicode="&#x134;" horiz-adv-x="333" 
d="M263 722v-569q0 -73 -47 -118t-138 -45q-23 0 -38 0.5t-30 2.5v122q11 -1 19.5 -2t17.5 -1q47 0 62.5 15t15.5 54v541h138zM254 909l114 -146h-113l-64 82l-64 -82h-113l114 146h126z" />
    <glyph glyph-name="jcircumflex" unicode="&#x135;" horiz-adv-x="278" 
d="M202 544v-588q0 -39 -12.5 -67t-33.5 -46t-49 -26.5t-59 -8.5q-25 0 -46 3v111q41 0 57.5 12t16.5 38v572h126zM200 756l114 -146h-113l-64 82l-64 -82h-113l114 146h126z" />
    <glyph glyph-name="Kcommaaccent" unicode="&#x136;" horiz-adv-x="556" 
d="M62 0v722h138v-298h2l179 298h151l-186 -291l207 -431h-155l-144 303l-54 -82v-221h-138zM281 -143h-44v98h102v-96l-38 -87h-51z" />
    <glyph glyph-name="kcommaaccent" unicode="&#x137;" 
d="M66 0v722h126v-389h2l134 211h141l-125 -184l136 -360h-133l-92 255l-63 -89v-166h-126zM252 -143h-44v98h102v-96l-38 -87h-51z" />
    <glyph glyph-name="Lacute" unicode="&#x139;" horiz-adv-x="444" 
d="M62 0v722h138v-600h222v-122h-360zM324 909l-147 -146h-101l93 146h155z" />
    <glyph glyph-name="lacute" unicode="&#x13a;" horiz-adv-x="278" 
d="M76 722h126v-722h-126v722zM305 909l-147 -146h-101l93 146h155z" />
    <glyph glyph-name="Lcommaaccent" unicode="&#x13b;" horiz-adv-x="444" 
d="M62 0v722h138v-600h222v-122h-360zM232 -143h-44v98h102v-96l-38 -87h-51z" />
    <glyph glyph-name="lcommaaccent" unicode="&#x13c;" horiz-adv-x="278" 
d="M76 722h126v-722h-126v722zM132 -143h-44v98h102v-96l-38 -87h-51z" />
    <glyph glyph-name="Lcaron" unicode="&#x13d;" horiz-adv-x="444" 
d="M62 0v722h138v-600h222v-122h-360zM294 626h-42v96h99v-94l-38 -89h-48z" />
    <glyph glyph-name="lcaron" unicode="&#x13e;" horiz-adv-x="278" 
d="M76 722h126v-722h-126v722zM281 626h-42v96h99v-94l-38 -89h-48z" />
    <glyph glyph-name="Ldot" unicode="&#x13f;" horiz-adv-x="444" 
d="M62 0v722h138v-600h222v-122h-360zM383 426v-114h-120v114h120z" />
    <glyph glyph-name="ldot" unicode="&#x140;" horiz-adv-x="411" 
d="M76 722h126v-722h-126v722zM395 426v-114h-120v114h120z" />
    <glyph glyph-name="Lslash" unicode="&#x141;" horiz-adv-x="444" 
d="M200 122h222v-122h-360v260l-62 -25v116l62 25v346h138v-290l163 66l-1 -116l-162 -66v-194z" />
    <glyph glyph-name="lslash" unicode="&#x142;" horiz-adv-x="278" 
d="M202 0h-126v313l-74 -37v94l74 37v315h126v-251l74 37v-94l-74 -37v-377z" />
    <glyph glyph-name="Nacute" unicode="&#x143;" horiz-adv-x="611" 
d="M70 0v722h151l192 -428h2v428h126v-722h-132l-211 466h-2v-466h-126zM479 909l-147 -146h-101l93 146h155z" />
    <glyph glyph-name="nacute" unicode="&#x144;" 
d="M60 0v544h122v-62q35 30 68.5 51t72.5 21q58 0 87.5 -32t29.5 -108v-414h-126v400q0 27 -10 43.5t-36 16.5q-20 0 -41 -15.5t-41 -33.5v-411h-126zM429 756l-147 -146h-101l93 146h155z" />
    <glyph glyph-name="Ncommaaccent" unicode="&#x145;" horiz-adv-x="611" 
d="M70 0v722h151l192 -428h2v428h126v-722h-132l-211 466h-2v-466h-126zM298 -143h-44v98h102v-96l-38 -87h-51z" />
    <glyph glyph-name="ncommaaccent" unicode="&#x146;" 
d="M60 0v544h122v-62q35 30 68.5 51t72.5 21q58 0 87.5 -32t29.5 -108v-414h-126v400q0 27 -10 43.5t-36 16.5q-20 0 -41 -15.5t-41 -33.5v-411h-126zM243 -143h-44v98h102v-96l-38 -87h-51z" />
    <glyph glyph-name="Ncaron" unicode="&#x147;" horiz-adv-x="611" 
d="M70 0v722h151l192 -428h2v428h126v-722h-132l-211 466h-2v-466h-126zM244 763l-114 146h113l64 -82l64 82h113l-114 -146h-126z" />
    <glyph glyph-name="ncaron" unicode="&#x148;" 
d="M60 0v544h122v-62q35 30 68.5 51t72.5 21q58 0 87.5 -32t29.5 -108v-414h-126v400q0 27 -10 43.5t-36 16.5q-20 0 -41 -15.5t-41 -33.5v-411h-126zM192 610l-114 146h113l64 -82l64 82h113l-114 -146h-126z" />
    <glyph glyph-name="Omacron" unicode="&#x14c;" horiz-adv-x="556" 
d="M188 214q0 -60 24 -81t66 -21t66 21t24 81v294q0 60 -24 81t-66 21t-66 -21t-24 -81v-294zM50 490q0 67 17 113t47 74.5t72 41.5t92 13t92 -13t72 -41.5t47 -74.5t17 -113v-258q0 -67 -17 -113t-47 -74.5t-72 -41.5t-92 -13t-92 13t-72 41.5t-47 74.5t-17 113v258z
M106 793v74h348v-74h-348z" />
    <glyph glyph-name="omacron" unicode="&#x14d;" 
d="M176 164q0 -32 20.5 -48t53.5 -16t53.5 16t20.5 48v216q0 32 -20.5 48t-53.5 16t-53.5 -16t-20.5 -48v-216zM50 348q0 108 52.5 157t147.5 49q94 0 147 -49t53 -157v-152q0 -108 -53 -157t-147 -49q-95 0 -147.5 49t-52.5 157v152zM78 640v74h348v-74h-348z" />
    <glyph glyph-name="Obreve" unicode="&#x14e;" horiz-adv-x="556" 
d="M188 214q0 -60 24 -81t66 -21t66 21t24 81v294q0 60 -24 81t-66 21t-66 -21t-24 -81v-294zM50 490q0 67 17 113t47 74.5t72 41.5t92 13t92 -13t72 -41.5t47 -74.5t17 -113v-258q0 -67 -17 -113t-47 -74.5t-72 -41.5t-92 -13t-92 13t-72 41.5t-47 74.5t-17 113v258z
M446 907q-10 -75 -55 -110.5t-120 -35.5q-72 0 -114 36.5t-47 109.5h64q2 -21 12 -34.5t24 -21.5t32 -11t36 -3q40 0 67 14t35 56h66z" />
    <glyph glyph-name="obreve" unicode="&#x14f;" 
d="M176 164q0 -32 20.5 -48t53.5 -16t53.5 16t20.5 48v216q0 32 -20.5 48t-53.5 16t-53.5 -16t-20.5 -48v-216zM50 348q0 108 52.5 157t147.5 49q94 0 147 -49t53 -157v-152q0 -108 -53 -157t-147 -49q-95 0 -147.5 49t-52.5 157v152zM420 754q-10 -75 -55 -110.5
t-120 -35.5q-72 0 -114 36.5t-47 109.5h64q2 -21 12 -34.5t24 -21.5t32 -11t36 -3q40 0 67 14t35 56h66z" />
    <glyph glyph-name="Ohungarumlaut" unicode="&#x150;" horiz-adv-x="556" 
d="M188 214q0 -60 24 -81t66 -21t66 21t24 81v294q0 60 -24 81t-66 21t-66 -21t-24 -81v-294zM50 490q0 67 17 113t47 74.5t72 41.5t92 13t92 -13t72 -41.5t47 -74.5t17 -113v-258q0 -67 -17 -113t-47 -74.5t-72 -41.5t-92 -13t-92 13t-72 41.5t-47 74.5t-17 113v258z
M358 909l-141 -146h-97l87 146h151zM542 909l-147 -146h-101l93 146h155z" />
    <glyph glyph-name="ohungarumlaut" unicode="&#x151;" 
d="M176 164q0 -32 20.5 -48t53.5 -16t53.5 16t20.5 48v216q0 32 -20.5 48t-53.5 16t-53.5 -16t-20.5 -48v-216zM50 348q0 108 52.5 157t147.5 49q94 0 147 -49t53 -157v-152q0 -108 -53 -157t-147 -49q-95 0 -147.5 49t-52.5 157v152zM328 756l-141 -146h-97l87 146h151z
M512 756l-147 -146h-101l93 146h155z" />
    <glyph glyph-name="OE" unicode="&#x152;" horiz-adv-x="944" 
d="M196 286q0 -50 7.5 -83t24.5 -53.5t44 -29t66 -8.5q33 0 55 8.5t34.5 25t17.5 40.5t5 56v238q0 31 -5 55.5t-17.5 41t-34.5 25t-55 8.5q-39 0 -66 -8.5t-44 -29t-24.5 -54t-7.5 -82.5v-150zM588 434h223v-122h-223v-190h306v-122h-413q-26 0 -45.5 -1.5t-38.5 -3.5
t-40.5 -3.5t-51.5 -1.5q-56 0 -101.5 19t-78 55.5t-50 89t-17.5 119.5v191q0 68 20.5 118.5t58 83.5t90 49.5t115.5 16.5q36 0 62.5 -1.5t50 -3.5t47.5 -3.5t56 -1.5h327v-122h-297v-166z" />
    <glyph glyph-name="oe" unicode="&#x153;" horiz-adv-x="778" 
d="M602 344v30q0 36 -18 57t-56 21t-58 -21t-20 -57v-30h152zM176 164q0 -32 20.5 -48t53.5 -16t53.5 16t20.5 48v216q0 32 -20.5 48t-53.5 16t-53.5 -16t-20.5 -48v-216zM450 242v-72q0 -41 23 -59.5t55 -18.5q40 0 57 22t17 54h126q-5 -85 -54.5 -131.5t-145.5 -46.5
q-47 0 -82.5 20t-57.5 52q-21 -32 -56.5 -52t-87.5 -20q-90 0 -142 49t-52 157v152q0 108 52 157t142 49q52 0 87.5 -20t56.5 -52q22 32 58.5 52t87.5 20q42 0 77.5 -13.5t61.5 -37.5t40.5 -58t14.5 -76v-127h-278z" />
    <glyph glyph-name="Racute" unicode="&#x154;" horiz-adv-x="556" 
d="M200 408h71q46 0 72 23.5t26 76.5t-26 76.5t-72 23.5h-71v-200zM386 0l-120 294h-66v-294h-138v722h200q125 0 185 -56.5t60 -159.5q0 -68 -25.5 -115t-83.5 -69l136 -322h-148zM430 909l-147 -146h-101l93 146h155z" />
    <glyph glyph-name="racute" unicode="&#x155;" horiz-adv-x="333" 
d="M60 0v544h123v-72h2q22 41 52 61.5t78 20.5v-136q-16 5 -33 9.5t-34 4.5q-31 0 -46.5 -19t-15.5 -41v-372h-126zM374 756l-147 -146h-101l93 146h155z" />
    <glyph glyph-name="Rcommaaccent" unicode="&#x156;" horiz-adv-x="556" 
d="M200 408h71q46 0 72 23.5t26 76.5t-26 76.5t-72 23.5h-71v-200zM386 0l-120 294h-66v-294h-138v722h200q125 0 185 -56.5t60 -159.5q0 -68 -25.5 -115t-83.5 -69l136 -322h-148zM279 -143h-44v98h102v-96l-38 -87h-51z" />
    <glyph glyph-name="rcommaaccent" unicode="&#x157;" horiz-adv-x="333" 
d="M60 0v544h123v-72h2q22 41 52 61.5t78 20.5v-136q-16 5 -33 9.5t-34 4.5q-31 0 -46.5 -19t-15.5 -41v-372h-126zM117 -143h-44v98h102v-96l-38 -87h-51z" />
    <glyph glyph-name="Rcaron" unicode="&#x158;" horiz-adv-x="556" 
d="M200 408h71q46 0 72 23.5t26 76.5t-26 76.5t-72 23.5h-71v-200zM386 0l-120 294h-66v-294h-138v722h200q125 0 185 -56.5t60 -159.5q0 -68 -25.5 -115t-83.5 -69l136 -322h-148zM198 763l-114 146h113l64 -82l64 82h113l-114 -146h-126z" />
    <glyph glyph-name="rcaron" unicode="&#x159;" horiz-adv-x="333" 
d="M60 0v544h123v-72h2q22 41 52 61.5t78 20.5v-136q-16 5 -33 9.5t-34 4.5q-31 0 -46.5 -19t-15.5 -41v-372h-126zM127 610l-114 146h113l64 -82l64 82h113l-114 -146h-126z" />
    <glyph glyph-name="Sacute" unicode="&#x15a;" horiz-adv-x="556" 
d="M367 521q-17 51 -41 74t-60 23q-37 0 -56.5 -21t-19.5 -58q0 -27 23 -47.5t57 -39.5t74 -40.5t74 -50.5t57 -69t23 -96q0 -47 -15.5 -85t-45 -65t-72.5 -41.5t-97 -14.5q-85 0 -146.5 48t-89.5 155l136 29q6 -33 17.5 -55.5t26.5 -36.5t31.5 -20t31.5 -6q36 0 60.5 22.5
t24.5 63.5q0 34 -23 58.5t-57 45.5t-74 41.5t-74 47t-57 61.5t-23 86q0 94 54.5 148t162.5 54q46 0 83 -13t65 -36.5t46.5 -55.5t27.5 -70zM444 909l-147 -146h-101l93 146h155z" />
    <glyph glyph-name="sacute" unicode="&#x15b;" horiz-adv-x="444" 
d="M300 378q-13 38 -35.5 56t-51.5 18q-22 0 -36.5 -14t-14.5 -35t18 -36.5t45.5 -29.5t59.5 -29t59.5 -35.5t45.5 -49t18 -68.5q0 -41 -13.5 -71.5t-37.5 -51.5t-57.5 -31.5t-72.5 -10.5q-29 0 -56 5t-52.5 21.5t-49.5 47t-47 81.5l113 31q8 -38 31 -61t61 -23
q29 0 45 12.5t16 35.5q0 26 -18 43t-45.5 30.5t-59.5 27.5t-59.5 34.5t-45.5 50.5t-18 76q0 39 14.5 67.5t38.5 47t55 28t64 9.5q71 0 119 -37t71 -99zM398 756l-147 -146h-101l93 146h155z" />
    <glyph glyph-name="Scircumflex" unicode="&#x15c;" horiz-adv-x="556" 
d="M367 521q-17 51 -41 74t-60 23q-37 0 -56.5 -21t-19.5 -58q0 -27 23 -47.5t57 -39.5t74 -40.5t74 -50.5t57 -69t23 -96q0 -47 -15.5 -85t-45 -65t-72.5 -41.5t-97 -14.5q-85 0 -146.5 48t-89.5 155l136 29q6 -33 17.5 -55.5t26.5 -36.5t31.5 -20t31.5 -6q36 0 60.5 22.5
t24.5 63.5q0 34 -23 58.5t-57 45.5t-74 41.5t-74 47t-57 61.5t-23 86q0 94 54.5 148t162.5 54q46 0 83 -13t65 -36.5t46.5 -55.5t27.5 -70zM333 909l114 -146h-113l-64 82l-64 -82h-113l114 146h126z" />
    <glyph glyph-name="scircumflex" unicode="&#x15d;" horiz-adv-x="444" 
d="M300 378q-13 38 -35.5 56t-51.5 18q-22 0 -36.5 -14t-14.5 -35t18 -36.5t45.5 -29.5t59.5 -29t59.5 -35.5t45.5 -49t18 -68.5q0 -41 -13.5 -71.5t-37.5 -51.5t-57.5 -31.5t-72.5 -10.5q-29 0 -56 5t-52.5 21.5t-49.5 47t-47 81.5l113 31q8 -38 31 -61t61 -23
q29 0 45 12.5t16 35.5q0 26 -18 43t-45.5 30.5t-59.5 27.5t-59.5 34.5t-45.5 50.5t-18 76q0 39 14.5 67.5t38.5 47t55 28t64 9.5q71 0 119 -37t71 -99zM285 756l114 -146h-113l-64 82l-64 -82h-113l114 146h126z" />
    <glyph glyph-name="Scedilla" unicode="&#x15e;" horiz-adv-x="556" 
d="M165 -161q18 -6 37 -11.5t38 -5.5q18 0 37 8.5t19 30.5q0 17 -12 27t-29 10q-12 0 -23 -2.5t-22 -5.5l-21 20l53 81q-69 7 -121 47q-61 48 -89 155l136 29q6 -33 17.5 -55.5t26.5 -36.5t31.5 -20t31.5 -6q36 0 60.5 22.5t24.5 63.5q0 34 -23 58.5t-57 45.5t-74 41.5
t-74 47t-57 61.5t-23 86q0 94 54.5 148t162.5 54q46 0 83 -13t65 -36.5t46.5 -55.5t27.5 -70l-124 -36q-17 51 -41 74t-60 23q-37 0 -56.5 -21t-19.5 -58q0 -27 23 -47.5t57 -39.5t74 -40.5t74 -50.5t57 -69t23 -96q0 -47 -15.5 -85t-45 -65t-72.5 -42q-32 -10 -71 -13
l-35 -52l2 -2q7 5 15 6t16 1q17 0 33 -5.5t29 -15.5t20.5 -24.5t7.5 -32.5q0 -26 -11.5 -43.5t-30 -29t-41 -16.5t-44.5 -5q-29 0 -56 7t-53 18z" />
    <glyph glyph-name="scedilla" unicode="&#x15f;" horiz-adv-x="444" 
d="M113 -161q18 -6 37 -11.5t38 -5.5q18 0 37 8.5t19 30.5q0 17 -12 27t-29 10q-12 0 -23 -2.5t-22 -5.5l-21 20l54 82q-10 1 -20 3q-27 5 -52.5 21.5t-49.5 47t-47 81.5l113 31q8 -38 31 -61t61 -23q29 0 45 12.5t16 35.5q0 26 -18 43t-45.5 30.5t-59.5 27.5t-59.5 34.5
t-45.5 50.5t-18 76q0 39 14.5 67.5t38.5 47t55 28t64 9.5q71 0 119 -37t71 -99l-104 -40q-13 38 -35.5 56t-51.5 18q-22 0 -36.5 -14t-14.5 -35t18 -36.5t45.5 -29.5t59.5 -29t59.5 -35.5t45.5 -49t18 -68.5q0 -41 -13.5 -71.5t-37.5 -51.5t-58 -32q-26 -8 -57 -9l-35 -52
l2 -2q7 5 15 6t16 1q17 0 33 -5.5t29 -15.5t20.5 -24.5t7.5 -32.5q0 -26 -11.5 -43.5t-30 -29t-41 -16.5t-44.5 -5q-29 0 -56 7t-53 18z" />
    <glyph glyph-name="Scaron" unicode="&#x160;" horiz-adv-x="556" 
d="M367 521q-17 51 -41 74t-60 23q-37 0 -56.5 -21t-19.5 -58q0 -27 23 -47.5t57 -39.5t74 -40.5t74 -50.5t57 -69t23 -96q0 -47 -15.5 -85t-45 -65t-72.5 -41.5t-97 -14.5q-85 0 -146.5 48t-89.5 155l136 29q6 -33 17.5 -55.5t26.5 -36.5t31.5 -20t31.5 -6q36 0 60.5 22.5
t24.5 63.5q0 34 -23 58.5t-57 45.5t-74 41.5t-74 47t-57 61.5t-23 86q0 94 54.5 148t162.5 54q46 0 83 -13t65 -36.5t46.5 -55.5t27.5 -70zM215 763l-114 146h113l64 -82l64 82h113l-114 -146h-126z" />
    <glyph glyph-name="scaron" unicode="&#x161;" horiz-adv-x="444" 
d="M300 378q-13 38 -35.5 56t-51.5 18q-22 0 -36.5 -14t-14.5 -35t18 -36.5t45.5 -29.5t59.5 -29t59.5 -35.5t45.5 -49t18 -68.5q0 -41 -13.5 -71.5t-37.5 -51.5t-57.5 -31.5t-72.5 -10.5q-29 0 -56 5t-52.5 21.5t-49.5 47t-47 81.5l113 31q8 -38 31 -61t61 -23
q29 0 45 12.5t16 35.5q0 26 -18 43t-45.5 30.5t-59.5 27.5t-59.5 34.5t-45.5 50.5t-18 76q0 39 14.5 67.5t38.5 47t55 28t64 9.5q71 0 119 -37t71 -99zM159 610l-114 146h113l64 -82l64 82h113l-114 -146h-126z" />
    <glyph glyph-name="Tcommaaccent" unicode="&#x162;" 
d="M480 722v-122h-161v-600h-138v600h-161v122h460zM242 -143h-44v98h102v-96l-38 -87h-51z" />
    <glyph glyph-name="tcommaaccent" unicode="&#x163;" horiz-adv-x="278" 
d="M6 418v102h50v148h126v-148h81v-102h-81v-278q0 -20 15.5 -30t41.5 -10h13t12 1v-106q-18 -3 -36 -4t-36 -1q-62 0 -99 24.5t-37 83.5v320h-50zM138 -143h-44v98h102v-96l-38 -87h-51z" />
    <glyph glyph-name="Tcaron" unicode="&#x164;" 
d="M480 722v-122h-161v-600h-138v600h-161v122h460zM188 763l-114 146h113l64 -82l64 82h113l-114 -146h-126z" />
    <glyph glyph-name="tcaron" unicode="&#x165;" horiz-adv-x="278" 
d="M254 633h-39v89h92v-87l-36 -80h-46zM6 418v102h50v148h126v-148h81v-102h-81v-278q0 -20 15.5 -30t41.5 -10h13t12 1v-106q-18 -3 -36 -4t-36 -1q-62 0 -99 24.5t-37 83.5v320h-50z" />
    <glyph glyph-name="Tbar" unicode="&#x166;" 
d="M480 722v-120h-161v-129h133v-111h-133v-362h-138v362h-133v111h133v129h-161v120h460z" />
    <glyph glyph-name="tbar" unicode="&#x167;" horiz-adv-x="278" 
d="M6 422v98h50v148h126v-148h81v-98h-81v-85h68v-89h-68v-108q0 -20 15.5 -30t41.5 -10h13q6 0 12 1v-106q-18 -3 -36 -4t-36 -1q-62 0 -99 24.5t-37 83.5v150h-45v89h45v85h-50z" />
    <glyph glyph-name="Utilde" unicode="&#x168;" horiz-adv-x="611" 
d="M208 722v-505q0 -52 23 -78.5t74 -26.5q98 0 98 105v505h138v-506q0 -60 -17 -102.5t-48 -70t-74.5 -40.5t-96.5 -13t-96.5 13t-74.5 40.5t-47.5 70t-16.5 102.5v506h138zM491 897q-5 -24 -13 -45.5t-20.5 -38.5t-31.5 -27t-46 -10q-20 0 -39.5 5.5t-37.5 12t-35.5 12
t-34.5 5.5q-19 0 -30 -12.5t-15 -29.5h-63q4 24 12.5 46t22.5 39t33.5 27t46.5 10q20 0 39.5 -6t37.5 -12.5t34 -12.5t28 -6q18 0 30.5 12.5t16.5 30.5h65z" />
    <glyph glyph-name="utilde" unicode="&#x169;" 
d="M440 544v-544h-122v62q-35 -30 -68.5 -51t-72.5 -21q-58 0 -87.5 32t-29.5 108v414h126v-400q0 -27 10 -43.5t36 -16.5q20 0 41 15.5t41 33.5v411h126zM434 744q-5 -24 -13 -45.5t-20.5 -38.5t-31.5 -27t-46 -10q-20 0 -39.5 5.5t-37.5 12t-35.5 12t-34.5 5.5
q-19 0 -30 -12.5t-15 -29.5h-63q4 24 12.5 46t22.5 39t33.5 27t46.5 10q20 0 39.5 -6t37.5 -12.5t34 -12.5t28 -6q18 0 30.5 12.5t16.5 30.5h65z" />
    <glyph glyph-name="Umacron" unicode="&#x16a;" horiz-adv-x="611" 
d="M208 722v-505q0 -52 23 -78.5t74 -26.5q98 0 98 105v505h138v-506q0 -60 -17 -102.5t-48 -70t-74.5 -40.5t-96.5 -13t-96.5 13t-74.5 40.5t-47.5 70t-16.5 102.5v506h138zM134 793v74h348v-74h-348z" />
    <glyph glyph-name="umacron" unicode="&#x16b;" 
d="M440 544v-544h-122v62q-35 -30 -68.5 -51t-72.5 -21q-58 0 -87.5 32t-29.5 108v414h126v-400q0 -27 10 -43.5t36 -16.5q20 0 41 15.5t41 33.5v411h126zM76 640v74h348v-74h-348z" />
    <glyph glyph-name="Ubreve" unicode="&#x16c;" horiz-adv-x="611" 
d="M208 722v-505q0 -52 23 -78.5t74 -26.5q98 0 98 105v505h138v-506q0 -60 -17 -102.5t-48 -70t-74.5 -40.5t-96.5 -13t-96.5 13t-74.5 40.5t-47.5 70t-16.5 102.5v506h138zM477 907q-10 -75 -55 -110.5t-120 -35.5q-72 0 -114 36.5t-47 109.5h64q2 -21 12 -34.5t24 -21.5
t32 -11t36 -3q40 0 67 14t35 56h66z" />
    <glyph glyph-name="ubreve" unicode="&#x16d;" 
d="M440 544v-544h-122v62q-35 -30 -68.5 -51t-72.5 -21q-58 0 -87.5 32t-29.5 108v414h126v-400q0 -27 10 -43.5t36 -16.5q20 0 41 15.5t41 33.5v411h126zM419 754q-10 -75 -55 -110.5t-120 -35.5q-72 0 -114 36.5t-47 109.5h64q2 -21 12 -34.5t24 -21.5t32 -11t36 -3
q40 0 67 14t35 56h66z" />
    <glyph glyph-name="Uring" unicode="&#x16e;" horiz-adv-x="611" 
d="M208 722v-505q0 -52 23 -78.5t74 -26.5q98 0 98 105v505h138v-506q0 -60 -17 -102.5t-48 -70t-74.5 -40.5t-96.5 -13t-96.5 13t-74.5 40.5t-47.5 70t-16.5 102.5v506h138zM305 917q-23 0 -37.5 -15.5t-14.5 -37.5q0 -23 14.5 -38t37.5 -15q22 0 38 15t16 38
q0 22 -16 37.5t-38 15.5zM305 757q-22 0 -41.5 8.5t-33.5 23t-22.5 34t-8.5 41.5t8.5 41.5t22.5 34t33.5 23t41.5 8.5t41.5 -8.5t34.5 -23t23.5 -34t8.5 -41.5t-8.5 -41.5t-23.5 -34t-34.5 -23t-41.5 -8.5z" />
    <glyph glyph-name="uring" unicode="&#x16f;" 
d="M440 544v-544h-122v62q-35 -30 -68.5 -51t-72.5 -21q-58 0 -87.5 32t-29.5 108v414h126v-400q0 -27 10 -43.5t36 -16.5q20 0 41 15.5t41 33.5v411h126zM249 764q-23 0 -37.5 -15.5t-14.5 -37.5q0 -23 14.5 -38t37.5 -15q22 0 38 15t16 38q0 22 -16 37.5t-38 15.5z
M249 604q-22 0 -41.5 8.5t-33.5 23t-22.5 34t-8.5 41.5t8.5 41.5t22.5 34t33.5 23t41.5 8.5t41.5 -8.5t34.5 -23t23.5 -34t8.5 -41.5t-8.5 -41.5t-23.5 -34t-34.5 -23t-41.5 -8.5z" />
    <glyph glyph-name="Uhungarumlaut" unicode="&#x170;" horiz-adv-x="611" 
d="M208 722v-505q0 -52 23 -78.5t74 -26.5q98 0 98 105v505h138v-506q0 -60 -17 -102.5t-48 -70t-74.5 -40.5t-96.5 -13t-96.5 13t-74.5 40.5t-47.5 70t-16.5 102.5v506h138zM378 909l-141 -146h-97l87 146h151zM562 909l-147 -146h-101l93 146h155z" />
    <glyph glyph-name="uhungarumlaut" unicode="&#x171;" 
d="M440 544v-544h-122v62q-35 -30 -68.5 -51t-72.5 -21q-58 0 -87.5 32t-29.5 108v414h126v-400q0 -27 10 -43.5t36 -16.5q20 0 41 15.5t41 33.5v411h126zM327 756l-141 -146h-97l87 146h151zM511 756l-147 -146h-101l93 146h155z" />
    <glyph glyph-name="Uogonek" unicode="&#x172;" horiz-adv-x="611" 
d="M208 722v-505q0 -52 23 -78.5t74 -26.5q98 0 98 105v505h138v-506q0 -60 -17 -102.5t-48 -70t-74 -40.5l-25 -12q-24 -12 -46 -27t-36.5 -35t-14.5 -45t15.5 -38.5t37.5 -13.5q24 0 50 15t46 28l20 -34q-34 -23 -71.5 -41t-79.5 -18q-43 0 -73.5 23t-30.5 68
q0 39 24.5 65.5t59.5 43.5q10 4 19 8q-48 1 -89 13q-43 13 -74 40.5t-47.5 70t-16.5 102.5v506h138z" />
    <glyph glyph-name="uogonek" unicode="&#x173;" 
d="M440 544v-544l-39 -1h-1l-18 -9q-24 -11 -46 -26t-36.5 -35t-14.5 -45t15.5 -38.5t37.5 -13.5q24 0 50 15t46 28l20 -34q-34 -23 -71.5 -41t-79.5 -18q-43 0 -73.5 23t-30.5 68q0 39 24.5 65.5t59.5 43.5q19 8 37 15v67q-37 -32 -70.5 -53t-72.5 -21q-58 0 -87.5 32
t-29.5 108v414h126v-400q0 -27 10 -43.5t36 -16.5q20 0 41 15.5t41 33.5v411h126z" />
    <glyph glyph-name="Wcircumflex" unicode="&#x174;" horiz-adv-x="833" 
d="M23 722h128l97 -472h2l99 472h133l100 -472h2l96 472h129l-158 -722h-133l-101 494h-2l-109 -494h-132zM484 909l114 -146h-113l-64 82l-64 -82h-113l114 146h126z" />
    <glyph glyph-name="wcircumflex" unicode="&#x175;" horiz-adv-x="667" 
d="M13 544h118l73 -340h2l73 340h108l77 -340h2l69 340h118l-128 -544h-118l-77 340h-2l-67 -340h-118zM398 756l114 -146h-113l-64 82l-64 -82h-113l114 146h126z" />
    <glyph glyph-name="Ycircumflex" unicode="&#x176;" horiz-adv-x="556" 
d="M280 431l117 291h147l-197 -430v-292h-138v292l-197 430h147zM343 909l114 -146h-113l-64 82l-64 -82h-113l114 146h126z" />
    <glyph glyph-name="ycircumflex" unicode="&#x177;" horiz-adv-x="444" 
d="M32 -80q9 -2 18 -2h19q21 0 37.5 8t28.5 19t18.5 23.5t6.5 21.5q0 24 -6.5 52t-16.5 63l-126 439h128l85 -360h2l79 360h128l-145 -542q-15 -55 -32.5 -92.5t-42.5 -60t-59.5 -32t-81.5 -9.5q-9 0 -19 0.5t-21 1.5v110zM287 756l114 -146h-113l-64 82l-64 -82h-113
l114 146h126z" />
    <glyph glyph-name="Ydieresis" unicode="&#x178;" horiz-adv-x="556" 
d="M280 431l117 291h147l-197 -430v-292h-138v292l-197 430h147zM433 885v-114h-120v114h120zM243 885v-114h-120v114h120z" />
    <glyph glyph-name="Zacute" unicode="&#x179;" 
d="M61 722h400v-116l-273 -484h279v-122h-434v117l273 483h-245v122zM454 909l-147 -146h-101l93 146h155z" />
    <glyph glyph-name="zacute" unicode="&#x17a;" horiz-adv-x="444" 
d="M51 544h362v-108l-231 -326h231v-110h-382v108l227 326h-207v110zM419 756l-147 -146h-101l93 146h155z" />
    <glyph glyph-name="Zdotaccent" unicode="&#x17b;" 
d="M61 722h400v-116l-273 -484h279v-122h-434v117l273 483h-245v122zM328 885v-114h-120v114h120z" />
    <glyph glyph-name="zdotaccent" unicode="&#x17c;" horiz-adv-x="444" 
d="M51 544h362v-108l-231 -326h231v-110h-382v108l227 326h-207v110zM300 732v-114h-120v114h120z" />
    <glyph glyph-name="Zcaron" unicode="&#x17d;" 
d="M61 722h400v-116l-273 -484h279v-122h-434v117l273 483h-245v122zM187 763l-114 146h113l64 -82l64 82h113l-114 -146h-126z" />
    <glyph glyph-name="zcaron" unicode="&#x17e;" horiz-adv-x="444" 
d="M51 544h362v-108l-231 -326h231v-110h-382v108l227 326h-207v110zM159 610l-114 146h113l64 -82l64 82h113l-114 -146h-126z" />
    <glyph glyph-name="florin" unicode="&#x192;" horiz-adv-x="556" 
d="M42 -78q9 -5 24 -8.5t28 -3.5q21 0 38.5 18t26.5 67l71 371h-98v88h119q13 76 29 129t38.5 86t53.5 48t74 15q20 0 38.5 -3.5t35.5 -8.5l-18 -100q-8 4 -20 7t-24 3q-17 -1 -29.5 -10t-22.5 -29.5t-18 -54t-15 -82.5h99v-88h-116l-64 -329q-8 -42 -20 -83t-33.5 -73.5
t-55 -52.5t-84.5 -20q-18 0 -37 2t-36 9z" />
    <glyph glyph-name="Scommaaccent" unicode="&#x218;" horiz-adv-x="556" 
d="M367 521q-17 51 -41 74t-60 23q-37 0 -56.5 -21t-19.5 -58q0 -27 23 -47.5t57 -39.5t74 -40.5t74 -50.5t57 -69t23 -96q0 -47 -15.5 -85t-45 -65t-72.5 -41.5t-97 -14.5q-85 0 -146.5 48t-89.5 155l136 29q6 -33 17.5 -55.5t26.5 -36.5t31.5 -20t31.5 -6q36 0 60.5 22.5
t24.5 63.5q0 34 -23 58.5t-57 45.5t-74 41.5t-74 47t-57 61.5t-23 86q0 94 54.5 148t162.5 54q46 0 83 -13t65 -36.5t46.5 -55.5t27.5 -70zM263 -143h-44v98h102v-96l-38 -87h-51z" />
    <glyph glyph-name="scommaaccent" unicode="&#x219;" horiz-adv-x="444" 
d="M300 378q-13 38 -35.5 56t-51.5 18q-22 0 -36.5 -14t-14.5 -35t18 -36.5t45.5 -29.5t59.5 -29t59.5 -35.5t45.5 -49t18 -68.5q0 -41 -13.5 -71.5t-37.5 -51.5t-57.5 -31.5t-72.5 -10.5q-29 0 -56 5t-52.5 21.5t-49.5 47t-47 81.5l113 31q8 -38 31 -61t61 -23
q29 0 45 12.5t16 35.5q0 26 -18 43t-45.5 30.5t-59.5 27.5t-59.5 34.5t-45.5 50.5t-18 76q0 39 14.5 67.5t38.5 47t55 28t64 9.5q71 0 119 -37t71 -99zM210 -143h-44v98h102v-96l-38 -87h-51z" />
    <glyph glyph-name="uni021A" unicode="&#x21a;" 
d="M480 722v-122h-161v-600h-138v600h-161v122h460zM242 -143h-44v98h102v-96l-38 -87h-51z" />
    <glyph glyph-name="uni021B" unicode="&#x21b;" horiz-adv-x="278" 
d="M6 418v102h50v148h126v-148h81v-102h-81v-278q0 -20 15.5 -30t41.5 -10h13t12 1v-106q-18 -3 -36 -4t-36 -1q-62 0 -99 24.5t-37 83.5v320h-50zM138 -143h-44v98h102v-96l-38 -87h-51z" />
    <glyph glyph-name="dotlessj" unicode="&#x237;" horiz-adv-x="278" 
d="M202 544v-588q0 -39 -12.5 -67t-33.5 -46t-49 -26.5t-59 -8.5q-25 0 -46 3v111q41 0 57.5 12t16.5 38v572h126z" />
    <glyph glyph-name="circumflex" unicode="&#x2c6;" horiz-adv-x="278" 
d="M202 756l114 -146h-113l-64 82l-64 -82h-113l114 146h126z" />
    <glyph glyph-name="caron" unicode="&#x2c7;" horiz-adv-x="278" 
d="M76 610l-114 146h113l64 -82l64 82h113l-114 -146h-126z" />
    <glyph glyph-name="uni02C9" unicode="&#x2c9;" horiz-adv-x="278" 
d="M-35 640v74h348v-74h-348z" />
    <glyph glyph-name="breve" unicode="&#x2d8;" horiz-adv-x="278" 
d="M307 754q-10 -75 -55 -110.5t-120 -35.5q-72 0 -114 36.5t-47 109.5h64q2 -21 12 -34.5t24 -21.5t32 -11t36 -3q40 0 67 14t35 56h66z" />
    <glyph glyph-name="dotaccent" unicode="&#x2d9;" horiz-adv-x="278" 
d="M199 732v-114h-120v114h120z" />
    <glyph glyph-name="ring" unicode="&#x2da;" horiz-adv-x="278" 
d="M138 764q-23 0 -37.5 -15.5t-14.5 -37.5q0 -23 14.5 -38t37.5 -15q22 0 38 15t16 38q0 22 -16 37.5t-38 15.5zM138 604q-22 0 -41.5 8.5t-33.5 23t-22.5 34t-8.5 41.5t8.5 41.5t22.5 34t33.5 23t41.5 8.5t41.5 -8.5t34.5 -23t23.5 -34t8.5 -41.5t-8.5 -41.5t-23.5 -34
t-34.5 -23t-41.5 -8.5z" />
    <glyph glyph-name="ogonek" unicode="&#x2db;" horiz-adv-x="278" 
d="M258 9q-20 -8 -44.5 -19t-46.5 -26t-36.5 -35t-14.5 -45t15.5 -38.5t37.5 -13.5q24 0 50 15t46 28l20 -34q-34 -23 -71.5 -41t-79.5 -18q-43 0 -73.5 23t-30.5 68q0 39 24.5 65.5t60 43t74.5 25.5t69 14v-12z" />
    <glyph glyph-name="tilde" unicode="&#x2dc;" horiz-adv-x="278" 
d="M322 744q-5 -24 -13 -45.5t-20.5 -38.5t-31.5 -27t-46 -10q-20 0 -39.5 5.5t-37.5 12t-35.5 12t-34.5 5.5q-19 0 -30 -12.5t-15 -29.5h-63q4 24 12.5 46t22.5 39t33.5 27t46.5 10q20 0 39.5 -6t37.5 -12.5t34 -12.5t28 -6q18 0 30.5 12.5t16.5 30.5h65z" />
    <glyph glyph-name="hungarumlaut" unicode="&#x2dd;" horiz-adv-x="278" 
d="M210 756l-141 -146h-97l87 146h151zM394 756l-147 -146h-101l93 146h155z" />
    <glyph glyph-name="uni0394" unicode="&#x394;" horiz-adv-x="683" 
d="M334 588l-180 -490h370zM9 0l272 712h110l284 -712h-666z" />
    <glyph glyph-name="uni03A9" unicode="&#x3a9;" horiz-adv-x="757" 
d="M426 0v188q39 8 69 27.5t50 47.5t30.5 63t10.5 74q0 46 -15.5 86.5t-43.5 70.5t-67.5 47.5t-86.5 17.5q-48 0 -87 -17.5t-67.5 -48t-44 -71.5t-15.5 -87q0 -81 39.5 -136t118.5 -74v-188h-271v91h183v47q-46 15 -80 41t-57 61t-34.5 77t-11.5 89q0 69 25.5 127t70 99.5
t103.5 65t127 23.5t127.5 -22.5t103.5 -63.5t69.5 -98.5t25.5 -127.5q0 -47 -11 -90t-34 -78.5t-57.5 -62t-81.5 -40.5v-47h184v-91h-272z" />
    <glyph glyph-name="uni03BC" unicode="&#x3bc;" 
d="M440 544v-544h-122v62q-32 -28 -63.5 -48.5t-68.5 -23.5v-182h-126v736h126v-400q0 -27 10 -43.5t36 -16.5q20 0 41 15.5t41 33.5v411h126z" />
    <glyph glyph-name="pi" unicode="&#x3c0;" horiz-adv-x="589" 
d="M566 13q-21 -10 -40.5 -15t-42.5 -5q-33 0 -53 10t-30.5 27.5t-13.5 41.5t-3 51v264h-211v-387h-101v387h-70v96h562v-96h-79v-249q0 -11 0.5 -21.5t4.5 -19t11.5 -13.5t21.5 -5q21 0 44 10v-76z" />
    <glyph glyph-name="endash" unicode="&#x2013;" 
d="M0 230v84h500v-84h-500z" />
    <glyph glyph-name="emdash" unicode="&#x2014;" horiz-adv-x="1000" 
d="M0 230v84h1000v-84h-1000z" />
    <glyph glyph-name="quoteleft" unicode="&#x2018;" horiz-adv-x="222" 
d="M122 584h60v-142h-142v142l63 148h70z" />
    <glyph glyph-name="quoteright" unicode="&#x2019;" horiz-adv-x="222" 
d="M100 580h-60v142h142v-142l-63 -148h-70z" />
    <glyph glyph-name="quotesinglbase" unicode="&#x201a;" horiz-adv-x="222" 
d="M100 0h-60v142h142v-142l-63 -148h-70z" />
    <glyph glyph-name="quotedblleft" unicode="&#x201c;" horiz-adv-x="444" 
d="M344 584h60v-142h-142v142l63 148h70zM122 584h60v-142h-142v142l63 148h70z" />
    <glyph glyph-name="quotedblright" unicode="&#x201d;" horiz-adv-x="444" 
d="M322 580h-60v142h142v-142l-63 -148h-70zM100 580h-60v142h142v-142l-63 -148h-70z" />
    <glyph glyph-name="quotedblbase" unicode="&#x201e;" horiz-adv-x="444" 
d="M322 0h-60v142h142v-142l-63 -148h-70zM100 0h-60v142h142v-142l-63 -148h-70z" />
    <glyph glyph-name="dagger" unicode="&#x2020;" 
d="M66 563l162 -27l-26 196h96l-26 -196l162 27v-96l-159 27l25 -170q-5 -43 -9.5 -92t-8 -101l-7 -104t-6.5 -101h-38q-3 49 -6.5 101l-7 104t-8 101t-9.5 92l25 170l-159 -27v96z" />
    <glyph glyph-name="daggerdbl" unicode="&#x2021;" 
d="M225 506l-159 -27v96l162 -27l-26 184h96l-26 -184l162 27v-96l-159 27l25 -177l-25 -177l159 27v-96l-162 27l26 -184h-96l26 184l-162 -27v96l159 -27l-25 177z" />
    <glyph glyph-name="bullet" unicode="&#x2022;" 
d="M69 361q0 37 14 70t38.5 57.5t57 38.5t70.5 14q37 0 70 -14t58 -38.5t39 -57.5t14 -70q0 -38 -14 -70.5t-39 -57.5t-58 -39t-70 -14q-38 0 -70.5 14t-57 39t-38.5 57.5t-14 70.5z" />
    <glyph glyph-name="ellipsis" unicode="&#x2026;" horiz-adv-x="1000" 
d="M762 0v142h142v-142h-142zM429 0v142h142v-142h-142zM96 0v142h142v-142h-142z" />
    <glyph glyph-name="perthousand" unicode="&#x2030;" horiz-adv-x="1000" 
d="M838 214q-29 0 -47.5 -19t-18.5 -47t18.5 -47t47.5 -19t47.5 19t18.5 47t-18.5 47t-47.5 19zM477 214q-29 0 -47.5 -19t-18.5 -47t18.5 -47t47.5 -19t47.5 19t18.5 47t-18.5 47t-47.5 19zM162 640q-29 0 -47.5 -19t-18.5 -47t18.5 -47t47.5 -19t47.5 19t18.5 47t-18.5 47
t-47.5 19zM484 732h77l-408 -742h-77zM838 296q31 0 58 -11.5t47 -32t31.5 -47.5t11.5 -57t-11.5 -57t-31.5 -47.5t-47 -32t-58 -11.5t-58 11.5t-47 32t-31.5 47.5t-11.5 57t11.5 57t31.5 47.5t47 32t58 11.5zM477 296q31 0 58 -11.5t47 -32t31.5 -47.5t11.5 -57t-11.5 -57
t-31.5 -47.5t-47 -32t-58 -11.5t-58 11.5t-47 32t-31.5 47.5t-11.5 57t11.5 57t31.5 47.5t47 32t58 11.5zM162 722q31 0 58 -11.5t47 -32t31.5 -47.5t11.5 -57t-11.5 -57t-31.5 -47.5t-47 -32t-58 -11.5t-58 11.5t-47 32t-31.5 47.5t-11.5 57t11.5 57t31.5 47.5t47 32
t58 11.5z" />
    <glyph glyph-name="guilsinglleft" unicode="&#x2039;" horiz-adv-x="333" 
d="M160 432h110l-122 -160l122 -160h-110l-122 160z" />
    <glyph glyph-name="guilsinglright" unicode="&#x203a;" horiz-adv-x="333" 
d="M173 112h-110l122 160l-122 160h110l122 -160z" />
    <glyph glyph-name="fraction" unicode="&#x2044;" horiz-adv-x="167" 
d="M238 732h96l-405 -742h-96z" />
    <glyph glyph-name="Euro" unicode="&#x20ac;" horiz-adv-x="556" 
d="M232 391v-72h190l-28 -88h-162v-5q0 -57 29.5 -89.5t86.5 -32.5q45 0 82 7.5t75 33.5v-118q-38 -20 -82.5 -27.5t-84.5 -7.5q-53 0 -95 15.5t-72 43t-46 66t-16 85.5v29h-79l28 88h51v72h-79l28 88h51v48q0 46 19 84t52 65t77 41.5t94 14.5q49 0 97.5 -14.5t87.5 -45.5
l-36 -113q-32 29 -73 44t-82 15q-27 0 -48.5 -9.5t-35.5 -25t-21.5 -35.5t-7.5 -42v-27h242l-28 -88h-214z" />
    <glyph glyph-name="afii61289" unicode="&#x2113;" 
d="M440 48q-71 -62 -155 -62q-70 0 -110 37.5t-40 101.5v70l-57 -53h-2l-39 60l97 85v246q0 42 12 76.5t34 59t51 38.5t64 14q61 0 97.5 -38.5t36.5 -103.5q0 -76 -45.5 -151t-137.5 -159v-126q0 -22 6 -36.5t15.5 -23t21 -12t23.5 -3.5q41 0 88 38h2zM338 572q0 32 -12 53
t-32 21t-34 -23.5t-14 -68.5v-190q48 52 70 105.5t22 102.5z" />
    <glyph glyph-name="trademark" unicode="&#x2122;" horiz-adv-x="1000" 
d="M373 638h-115v-328h-112v328h-114v84h341v-84zM686 472l93 250h153v-412h-106v280h-2l-98 -280h-81l-98 280h-2v-280h-106v412h153z" />
    <glyph glyph-name="Omega" unicode="&#x2126;" horiz-adv-x="757" 
d="M426 0v188q39 8 69 27.5t50 47.5t30.5 63t10.5 74q0 46 -15.5 86.5t-43.5 70.5t-67.5 47.5t-86.5 17.5q-48 0 -87 -17.5t-67.5 -48t-44 -71.5t-15.5 -87q0 -81 39.5 -136t118.5 -74v-188h-271v91h183v47q-46 15 -80 41t-57 61t-34.5 77t-11.5 89q0 69 25.5 127t70 99.5
t103.5 65t127 23.5t127.5 -22.5t103.5 -63.5t69.5 -98.5t25.5 -127.5q0 -47 -11 -90t-34 -78.5t-57.5 -62t-81.5 -40.5v-47h184v-91h-272z" />
    <glyph glyph-name="estimated" unicode="&#x212e;" horiz-adv-x="600" 
d="M157 259v-181q59 -59 145 -59q63 0 109 28.5t84 91.5l35 -21q-23 -36 -46.5 -61.5t-51 -42t-59.5 -24t-71 -7.5q-59 0 -106.5 21.5t-81.5 59t-52 87.5t-18 108t18 108.5t52 87.5t81.5 58.5t106.5 21.5q58 0 105.5 -20.5t81.5 -57t53 -87t19 -111.5h-404zM448 295v145
q-63 60 -147 60t-144 -60v-145h291z" />
    <glyph glyph-name="partialdiff" unicode="&#x2202;" horiz-adv-x="548" 
d="M396 287q-26 31 -56.5 49t-72.5 18q-32 0 -55 -12t-39 -32t-23.5 -46t-7.5 -55q0 -27 7 -52.5t21 -45t36.5 -31.5t52.5 -12q36 0 62.5 19t43.5 48.5t25 64t7 64.5zM507 359q0 -63 -10 -129t-38 -119.5t-77 -88t-127 -34.5q-49 0 -89 17.5t-68 48t-43.5 72t-15.5 89.5
q0 47 15 87t43 69.5t67 46t87 16.5q43 0 79 -15t68 -43l1 30q1 37 -6.5 77.5t-26 75t-49 57t-75.5 22.5q-34 0 -63 -14t-55 -34l-57 66q41 32 79.5 48.5t91.5 16.5q77 0 128.5 -32t83 -84t44.5 -116.5t13 -129.5z" />
    <glyph glyph-name="Delta" unicode="&#x2206;" horiz-adv-x="683" 
d="M334 588l-180 -490h370zM9 0l272 712h110l284 -712h-666z" />
    <glyph glyph-name="product" unicode="&#x220f;" horiz-adv-x="737" 
d="M566 -214v902h-396v-902h-107v1000h611v-1000h-108z" />
    <glyph glyph-name="summation" unicode="&#x2211;" horiz-adv-x="643" 
d="M25 -214v86l306 419l-293 411v84h567v-98h-424l279 -396l-297 -409h455v-97h-593z" />
    <glyph glyph-name="minus" unicode="&#x2212;" horiz-adv-x="600" 
d="M28 211v122h544v-122h-544z" />
    <glyph glyph-name="uni2215" unicode="&#x2215;" horiz-adv-x="167" 
d="M238 732h96l-405 -742h-96z" />
    <glyph glyph-name="uni2219" unicode="&#x2219;" horiz-adv-x="278" 
d="M139 348q34 0 55 -23.5t21 -52.5t-21 -52.5t-55 -23.5t-55 23.5t-21 52.5t21 52.5t55 23.5z" />
    <glyph glyph-name="radical" unicode="&#x221a;" horiz-adv-x="531" 
d="M332 -214h-101l-153 319l-50 -23l-40 85l143 65l133 -281l170 835h109z" />
    <glyph glyph-name="infinity" unicode="&#x221e;" horiz-adv-x="806" 
d="M348 258q-13 13 -29 28t-34 28t-38 21.5t-39 8.5q-36 0 -57 -25.5t-21 -59.5q0 -37 21.5 -60t59.5 -23q19 0 38.5 7.5t37 19.5t33.5 26.5t28 28.5zM675 259q0 37 -21 61.5t-59 24.5q-20 0 -39 -8.5t-36.5 -22t-33 -29l-28.5 -28.5q13 -14 29 -28.5t33.5 -26.5t37 -19.5
t40.5 -7.5q37 0 57 24.5t20 59.5zM761 262q0 -38 -11 -70.5t-32.5 -56.5t-52 -38t-69.5 -14q-31 0 -57.5 9.5t-50 25.5t-45 36t-40.5 41q-21 -21 -41.5 -41t-43 -35t-48.5 -24.5t-59 -9.5q-38 0 -69 13.5t-53 36.5t-33.5 55t-11.5 70q0 37 11.5 69t32.5 56t51.5 37.5
t68.5 13.5q32 0 59.5 -10t51 -26.5t44 -37.5t40.5 -44q19 22 40 43.5t45 38t51 27t58 10.5q38 0 68.5 -13.5t51.5 -37t32.5 -55.5t11.5 -69z" />
    <glyph glyph-name="integral" unicode="&#x222b;" horiz-adv-x="600" 
d="M474 713q0 -21 -15 -35t-36 -14q-22 0 -32 10t-15.5 22.5t-10 22.5t-13.5 10q-13 0 -16 -11t-3 -21q0 -33 1 -66.5t1 -66.5l1 -524q0 -39 -1.5 -83.5t-14.5 -82.5t-42 -63t-83 -25q-16 0 -34 4t-33 13t-25 22.5t-10 32.5q0 21 13 35t35 14q21 0 31.5 -10.5t16 -23
t9.5 -23t13 -10.5t13 5.5t5.5 13.5t1 16.5t-0.5 13.5q0 24 -1.5 48.5t-1.5 48.5v535q0 40 0.5 86.5t13 86t42 66t86.5 26.5q16 0 34.5 -4t34 -13t26 -23t10.5 -33z" />
    <glyph glyph-name="approxequal" unicode="&#x2248;" horiz-adv-x="600" 
d="M566 241q-3 -32 -12.5 -62t-26.5 -53.5t-43 -37.5t-63 -14q-30 0 -66 11t-71 23.5t-66.5 23.5t-53.5 11q-29 0 -45 -21.5t-20 -47.5h-68q3 31 12.5 61t26.5 54t42.5 38.5t61.5 14.5q32 0 65.5 -10.5t67 -23t66 -23t62.5 -10.5q29 0 44 20t20 46h67zM568 444
q-3 -32 -12.5 -62t-26.5 -53.5t-43 -37.5t-63 -14q-30 0 -66 11t-71 23.5t-66.5 23.5t-53.5 11q-29 0 -44.5 -21.5t-20.5 -47.5h-68q3 31 12 61t26.5 54t43 38.5t61.5 14.5q31 0 65 -10.5t67.5 -23t66.5 -23t62 -10.5t43.5 20t19.5 46h68z" />
    <glyph glyph-name="notequal" unicode="&#x2260;" horiz-adv-x="600" 
d="M274 99l-78 -152l-89 46l55 106h-122v102h173l61 117h-234v101h285l77 152l89 -45l-54 -107h122v-101h-174l-60 -117h234v-102h-285z" />
    <glyph glyph-name="lessequal" unicode="&#x2264;" horiz-adv-x="600" 
d="M40 -35v101h519v-101h-519zM40 272v103l519 179v-107l-381 -123l381 -117v-107z" />
    <glyph glyph-name="greaterequal" unicode="&#x2265;" horiz-adv-x="600" 
d="M40 -35v101h519v-101h-519zM40 100v107l380 117l-380 123v107l519 -179v-103z" />
    <glyph glyph-name="lozenge" unicode="&#x25ca;" horiz-adv-x="593" 
d="M295 646l-119 -290l119 -291l122 291zM343 -35h-95l-176 391l176 391h95l177 -391z" />
    <glyph glyph-name="grave.cap" unicode="&#xe300;" horiz-adv-x="278" 
d="M131 909l93 -146h-101l-147 146h155z" />
    <glyph glyph-name="acute.cap" unicode="&#xe301;" horiz-adv-x="278" 
d="M302 909l-147 -146h-101l93 146h155z" />
    <glyph glyph-name="circumflex.cap" unicode="&#xe302;" horiz-adv-x="278" 
d="M202 909l114 -146h-113l-64 82l-64 -82h-113l114 146h126z" />
    <glyph glyph-name="caron.cap" unicode="&#xe303;" horiz-adv-x="278" 
d="M76 763l-114 146h113l64 -82l64 82h113l-114 -146h-126z" />
    <glyph glyph-name="tilde.cap" unicode="&#xe304;" horiz-adv-x="278" 
d="M322 897q-5 -24 -13 -45.5t-20.5 -38.5t-31.5 -27t-46 -10q-20 0 -39.5 5.5t-37.5 12t-35.5 12t-34.5 5.5q-19 0 -30 -12.5t-15 -29.5h-63q4 24 12.5 46t22.5 39t33.5 27t46.5 10q20 0 39.5 -6t37.5 -12.5t34 -12.5t28 -6q18 0 30.5 12.5t16.5 30.5h65z" />
    <glyph glyph-name="dieresis.cap" unicode="&#xe305;" horiz-adv-x="278" 
d="M294 885v-114h-120v114h120zM104 885v-114h-120v114h120z" />
    <glyph glyph-name="macron.cap" unicode="&#xe306;" horiz-adv-x="278" 
d="M-35 793v74h348v-74h-348z" />
    <glyph glyph-name="breve.cap" unicode="&#xe307;" horiz-adv-x="278" 
d="M307 907q-10 -75 -55 -110.5t-120 -35.5q-72 0 -114 36.5t-47 109.5h64q2 -21 12 -34.5t24 -21.5t32 -11t36 -3q40 0 67 14t35 56h66z" />
    <glyph glyph-name="ring.cap" unicode="&#xe308;" horiz-adv-x="278" 
d="M138 917q-23 0 -37.5 -15.5t-14.5 -37.5q0 -23 14.5 -38t37.5 -15q22 0 38 15t16 38q0 22 -16 37.5t-38 15.5zM138 757q-22 0 -41.5 8.5t-33.5 23t-22.5 34t-8.5 41.5t8.5 41.5t22.5 34t33.5 23t41.5 8.5t41.5 -8.5t34.5 -23t23.5 -34t8.5 -41.5t-8.5 -41.5t-23.5 -34
t-34.5 -23t-41.5 -8.5z" />
    <glyph glyph-name="hungarumlaut.cap" unicode="&#xe309;" horiz-adv-x="278" 
d="M210 909l-141 -146h-97l87 146h151zM394 909l-147 -146h-101l93 146h155z" />
    <glyph glyph-name="dotaccent.cap" unicode="&#xe30a;" horiz-adv-x="278" 
d="M199 885v-114h-120v114h120z" />
    <glyph glyph-name="caron.alt" unicode="&#xe30b;" horiz-adv-x="222" 
d="M136 626h-42v96h99v-94l-38 -89h-48z" />
    <glyph glyph-name="commaaccent" unicode="&#xe30c;" horiz-adv-x="278" 
d="M132 -143h-44v98h102v-96l-38 -87h-51z" />
    <glyph glyph-name="commaaccent.alt" unicode="&#xe30d;" horiz-adv-x="222" 
d="M145 686h38v-82h-88v80l34 72h44z" />
    <glyph glyph-name="uniF8FF" unicode="&#xf8ff;" horiz-adv-x="512" 
d="M222 117v67h56v-67h-56zM225 234l-2 17q0 55 13 81t46 59q32 31 41 47.5t9 35.5q0 36 -22.5 60.5t-53.5 24.5t-53.5 -22t-28.5 -73l-50 8q7 71 44 104t91 33q53 0 88.5 -36t35.5 -95q0 -32 -12.5 -58.5t-50.5 -61.5q-37 -33 -43 -52t-6 -72h-46zM462 50v617h-412v-617
h412zM512 718v-718h-512v718h512z" />
    </font>
</defs>
</svg>
